<svg width="139" height="80" viewBox="0 0 139 80" fill="none" xmlns="http://www.w3.org/2000/svg">
<rect width="12" height="80" fill="#A1232F"/>
<g clip-path="url(#clip0_1078_8701)">
<path d="M130.538 66.6944L130.813 66.8491L130.103 68.0009L129.862 67.8978C129.702 67.829 129.61 67.8176 129.57 67.8176C129.387 67.8176 129.209 67.8978 129.026 68.0582C128.825 68.2301 128.676 68.5166 128.568 68.9006C128.476 69.21 128.436 69.8862 128.436 70.9062V73.2556H127.032V66.6027H128.436V66.9695C128.527 66.8893 128.619 66.8205 128.711 66.7575C129.249 66.3964 129.879 66.322 130.532 66.6944H130.538ZM124.569 69.0152H120.921C121.047 68.7115 121.207 68.4708 121.402 68.2989C121.774 67.9665 122.204 67.8061 122.725 67.8061C123.034 67.8061 123.338 67.8749 123.619 68.0066C123.905 68.1442 124.123 68.3104 124.295 68.5224C124.403 68.6599 124.495 68.8261 124.569 69.0209V69.0152ZM126.145 69.995C126.133 69.1011 125.887 68.3447 125.411 67.7431C124.741 66.8893 123.831 66.4538 122.708 66.4538C121.585 66.4538 120.726 66.8778 120.073 67.7144C119.563 68.3677 119.3 69.1183 119.3 69.9492C119.3 70.8374 119.603 71.6396 120.205 72.3444C120.818 73.055 121.671 73.416 122.742 73.416C123.223 73.416 123.659 73.3415 124.048 73.1982C124.438 73.0435 124.793 72.8201 125.091 72.545C125.394 72.2642 125.669 71.8918 125.898 71.4391L126.036 71.1697L124.856 70.5566L124.707 70.803C124.484 71.1697 124.283 71.4333 124.105 71.5881C123.934 71.7428 123.716 71.8631 123.458 71.9605C123.206 72.0579 122.943 72.1038 122.674 72.1038C122.118 72.1038 121.665 71.9147 121.287 71.525C120.972 71.1927 120.789 70.7973 120.726 70.3102H126.133V70.0008L126.145 69.995ZM117.811 66.6142H119.042V67.892H117.811V73.267H116.413V67.892H115.353V66.6142H116.413V64.3737H117.811V66.6142ZM113.429 66.8549C112.65 66.3391 111.544 66.3391 110.685 66.809C110.485 66.9179 110.29 67.0554 110.101 67.2216V66.6199H108.715V73.2727H110.101V70.7514C110.101 69.8002 110.158 69.3704 110.204 69.1871C110.307 68.786 110.513 68.4593 110.834 68.19C111.155 67.9264 111.504 67.7946 111.899 67.7946C112.243 67.7946 112.506 67.8749 112.713 68.0353C112.913 68.19 113.051 68.4307 113.125 68.7688C113.159 68.9178 113.205 69.2616 113.205 70.0867V73.2727H114.591V69.8575C114.591 68.9865 114.5 68.3562 114.317 67.9207C114.127 67.4795 113.83 67.1242 113.429 66.8606V66.8549ZM105.616 68.5338C105.45 68.3275 105.226 68.1556 104.94 68.0181C104.654 67.8863 104.361 67.8176 104.046 67.8176C103.531 67.8176 103.096 67.978 102.723 68.3161C102.534 68.488 102.374 68.7229 102.242 69.0266H105.891C105.816 68.8318 105.725 68.6656 105.616 68.5281V68.5338ZM107.472 70.3102H102.065C102.128 70.7973 102.311 71.1927 102.632 71.525C103.004 71.9147 103.456 72.1038 104.018 72.1038C104.287 72.1038 104.55 72.0579 104.802 71.9605C105.06 71.8688 105.278 71.7428 105.455 71.5881C105.633 71.4333 105.833 71.1697 106.057 70.803L106.206 70.5566L107.386 71.1697L107.248 71.4391C107.019 71.8918 106.744 72.2642 106.441 72.545C106.137 72.8258 105.788 73.0435 105.398 73.1982C105.009 73.3415 104.573 73.416 104.092 73.416C103.021 73.416 102.168 73.055 101.555 72.3444C100.953 71.6396 100.65 70.8374 100.65 69.9492C100.65 69.1183 100.908 68.3619 101.423 67.7144C102.076 66.8778 102.964 66.4538 104.058 66.4538C105.152 66.4538 106.091 66.8893 106.761 67.7431C107.237 68.3447 107.483 69.1011 107.495 69.995V70.3045L107.472 70.3102ZM98.8798 71.1583C98.3758 71.7943 97.74 72.1038 96.9438 72.1038C96.5142 72.1038 96.119 72.0064 95.7753 71.823C95.4374 71.6396 95.1682 71.3703 94.9734 71.0322C94.7787 70.6884 94.6813 70.3331 94.6813 69.9435C94.6813 69.3418 94.8875 68.8547 95.3171 68.4364C95.7467 68.0124 96.2794 67.8118 96.9381 67.8118C97.7629 67.8118 98.3987 68.1213 98.8741 68.7516L99.0402 68.9751L100.146 68.2874L99.991 68.0296C99.7906 67.6915 99.5443 67.4107 99.2521 67.193C98.9657 66.9752 98.6163 66.7976 98.2154 66.6658C97.1844 66.3277 95.9987 66.4308 95.0937 66.9236C94.5324 67.2331 94.0798 67.6686 93.7591 68.2187C93.4383 68.763 93.2779 69.3647 93.2779 70.0008C93.2779 70.952 93.6273 71.7772 94.3147 72.4361C94.9963 73.0951 95.867 73.4332 96.9037 73.4332C97.5681 73.4332 98.1753 73.3014 98.6965 73.0493C99.235 72.7857 99.6645 72.4075 99.9796 71.9319L100.151 71.674L99.0459 70.9463L98.8741 71.164L98.8798 71.1583ZM136.873 52.0078H138.368L134.502 60.8668H133.012L134.313 57.8985L131.993 52.6725L131.54 53.406L131.3 53.3028C131.139 53.2341 131.053 53.2226 131.013 53.2226C130.83 53.2226 130.652 53.3028 130.469 53.469C130.274 53.6409 130.12 53.9217 130.011 54.3114C129.948 54.5291 129.879 55.0506 129.879 56.3169V58.6663H128.476V52.0135H129.879V52.3803C129.971 52.3 130.062 52.2313 130.154 52.1682C130.641 51.8416 131.185 51.7671 131.764 52.0135H133.196L135.069 56.2081L136.884 52.0135L136.873 52.0078ZM124.758 57.2109C124.088 57.5833 123.309 57.5891 122.668 57.2109C122.341 57.016 122.095 56.7582 121.9 56.4144C121.705 56.0705 121.614 55.721 121.614 55.3428C121.614 54.9646 121.711 54.6093 121.895 54.2712C122.084 53.9332 122.341 53.6696 122.662 53.4919C122.983 53.3028 123.326 53.2111 123.705 53.2111C124.3 53.2111 124.781 53.4117 125.182 53.8243C125.589 54.2369 125.789 54.7411 125.789 55.36C125.789 55.7726 125.704 56.1278 125.515 56.4487C125.343 56.7639 125.085 57.016 124.758 57.1994V57.2109ZM123.619 58.8039C124.14 58.8039 124.632 58.6893 125.079 58.4715C125.308 58.3569 125.532 58.2137 125.738 58.0417V58.6434H127.118V51.9906H125.738V52.6095C125.549 52.4433 125.343 52.3 125.125 52.1854C124.684 51.9505 124.186 51.8359 123.642 51.8359C122.702 51.8359 121.889 52.1797 121.219 52.8559C120.554 53.532 120.216 54.3515 120.216 55.3027C120.216 56.2539 120.548 57.102 121.207 57.7839C121.872 58.4601 122.685 58.8039 123.619 58.8039ZM115.594 53.5607C115.273 53.83 115.067 54.1566 114.964 54.5578C114.918 54.7411 114.861 55.1709 114.861 56.1221V58.6434H113.475V51.9906H114.861V52.5923C115.044 52.4261 115.239 52.2943 115.439 52.1854C116.304 51.7156 117.404 51.7213 118.183 52.2313C118.584 52.4949 118.882 52.8501 119.071 53.2914C119.254 53.7211 119.346 54.3572 119.346 55.2282V58.6434H117.959V55.4574C117.959 54.6265 117.919 54.2827 117.879 54.1395C117.799 53.8071 117.662 53.5607 117.467 53.406C117.266 53.2455 116.991 53.1653 116.659 53.1653C116.258 53.1653 115.909 53.2971 115.588 53.5607H115.594ZM112.111 49.7902C111.75 49.4235 111.138 49.4177 110.771 49.7902C110.588 49.9736 110.49 50.2028 110.49 50.4606C110.49 50.7185 110.588 50.942 110.771 51.1253C110.954 51.3087 111.183 51.4061 111.435 51.4061C111.687 51.4061 111.928 51.3087 112.106 51.1253C112.289 50.942 112.386 50.7128 112.386 50.4606C112.386 50.2085 112.289 49.9678 112.111 49.7902ZM110.742 51.9963H112.134V58.6492H110.742V51.9963ZM109.093 49.6641H107.707V58.6492H109.093V49.6641ZM102.208 51.9963V55.1193C102.208 55.7783 102.242 56.231 102.305 56.4545C102.397 56.7582 102.563 56.9874 102.815 57.165C103.336 57.5203 104.184 57.5203 104.688 57.1765C104.934 57.0046 105.1 56.7811 105.198 56.5003C105.244 56.3628 105.301 56.0132 105.301 55.1136V51.9906H106.71V55.2626C106.71 56.1508 106.607 56.8097 106.383 57.2739C106.171 57.7495 105.833 58.1277 105.387 58.397C104.951 58.6606 104.407 58.7981 103.766 58.7981C103.124 58.7981 102.574 58.6663 102.128 58.397C101.681 58.122 101.343 57.7438 101.125 57.2624C100.913 56.7926 100.81 56.1164 100.81 55.2053V51.9906H102.202L102.208 51.9963ZM98.8684 56.5347C98.3643 57.1708 97.7285 57.4802 96.9323 57.4802C96.497 57.4802 96.1133 57.3885 95.7639 57.1994C95.4316 57.016 95.1567 56.7467 94.9619 56.4086C94.7672 56.0648 94.6698 55.7095 94.6698 55.3199C94.6698 54.7239 94.876 54.2311 95.3056 53.8128C95.7352 53.3945 96.2679 53.1882 96.9266 53.1882C97.7514 53.1882 98.3872 53.4977 98.8626 54.128L99.0287 54.3515L100.14 53.6638L99.9853 53.406C99.7848 53.0736 99.5385 52.7928 99.2464 52.5694C98.96 52.3516 98.6106 52.174 98.2097 52.0479C97.1901 51.7041 95.993 51.8072 95.088 52.3058C94.5266 52.6152 94.0798 53.045 93.7534 53.5951C93.4326 54.1394 93.2722 54.7354 93.2722 55.3772C93.2722 56.3284 93.6216 57.1536 94.309 57.8125C94.9906 58.4715 95.8612 58.8096 96.898 58.8096C97.5624 58.8096 98.1638 58.6778 98.6908 58.4257C99.2235 58.1621 99.6588 57.7896 99.9739 57.314L100.146 57.0561L99.0402 56.3284L98.8684 56.5462V56.5347ZM133.012 39.5502C132.938 39.3554 132.846 39.1892 132.737 39.0574C132.571 38.8454 132.342 38.6735 132.062 38.5417C131.775 38.4099 131.483 38.3412 131.168 38.3412C130.652 38.3412 130.217 38.5016 129.845 38.834C129.656 39.0059 129.495 39.2408 129.364 39.5502H133.012ZM128.659 42.8738C128.058 42.169 127.754 41.3667 127.754 40.4843C127.754 39.6477 128.012 38.897 128.527 38.2495C129.18 37.4129 130.062 36.9888 131.162 36.9888C132.262 36.9888 133.196 37.4243 133.866 38.2781C134.341 38.8798 134.588 39.6362 134.599 40.5301V40.8395H129.192C129.255 41.3266 129.438 41.722 129.759 42.0544C130.131 42.444 130.584 42.6331 131.139 42.6331C131.409 42.6331 131.672 42.5873 131.924 42.4899C132.182 42.3924 132.399 42.2721 132.571 42.1174C132.749 41.9627 132.949 41.6991 133.173 41.3323L133.322 41.0859L134.502 41.7048L134.364 41.9741C134.135 42.4326 133.86 42.805 133.557 43.0858C133.247 43.3666 132.898 43.5901 132.514 43.739C132.125 43.888 131.689 43.9568 131.208 43.9568C130.137 43.9568 129.278 43.5958 128.671 42.8852L128.659 42.8738ZM122.484 43.5557C122.926 43.8193 123.475 43.9568 124.117 43.9568C124.758 43.9568 125.303 43.825 125.738 43.5557C126.179 43.2864 126.517 42.9082 126.735 42.4326C126.952 41.9627 127.055 41.3094 127.055 40.4212V37.1493H125.652V40.2722C125.652 41.1719 125.595 41.5214 125.549 41.659C125.457 41.934 125.285 42.1575 125.039 42.3294C124.541 42.679 123.693 42.679 123.166 42.3179C122.914 42.1403 122.742 41.9054 122.656 41.6074C122.61 41.4527 122.559 41.0917 122.559 40.2722V37.1493H121.167V40.3639C121.167 41.2808 121.27 41.9512 121.482 42.4211C121.7 42.9024 122.038 43.2806 122.484 43.5557ZM118.59 41.5959C118.773 41.2693 118.864 40.914 118.864 40.5072C118.864 39.8883 118.664 39.3841 118.257 38.9715C117.856 38.5589 117.369 38.3583 116.78 38.3583C116.401 38.3583 116.058 38.45 115.737 38.6391C115.416 38.8225 115.164 39.0861 114.975 39.4184C114.786 39.7508 114.695 40.1118 114.695 40.49C114.695 40.8682 114.786 41.2177 114.981 41.5616C115.17 41.8996 115.428 42.169 115.748 42.3581C116.384 42.7305 117.175 42.7248 117.839 42.3581C118.177 42.169 118.423 41.9226 118.595 41.6074L118.59 41.5959ZM114.288 42.9483C113.629 42.2664 113.297 41.4298 113.297 40.4671C113.297 39.5044 113.635 38.6964 114.299 38.0203C114.964 37.3441 115.777 37.006 116.722 37.006C117.266 37.006 117.765 37.1263 118.206 37.3556C118.423 37.4702 118.624 37.6077 118.819 37.7796V37.1607H120.193V46.0254H118.819V43.2119C118.612 43.3838 118.395 43.527 118.16 43.6359C117.719 43.8537 117.226 43.9683 116.699 43.9683C115.766 43.9683 114.952 43.6244 114.288 42.9483ZM109.677 42.0486L109.448 41.7908L108.56 42.7936L108.715 42.9941C108.949 43.2978 109.253 43.5385 109.608 43.7104C109.963 43.8823 110.347 43.9683 110.742 43.9683C111.344 43.9683 111.854 43.7677 112.26 43.3609C112.667 42.9597 112.873 42.4612 112.873 41.8824C112.873 41.4699 112.753 41.0917 112.506 40.7479C112.272 40.4327 111.854 40.1175 111.223 39.7909C110.679 39.5101 110.467 39.3325 110.387 39.2293C110.284 39.109 110.238 38.9887 110.238 38.8626C110.238 38.7251 110.296 38.6105 110.404 38.5073C110.754 38.1864 111.304 38.324 111.848 38.8569L112.065 39.0689L112.993 38.1119L112.77 37.8999C111.607 36.7768 110.273 36.7711 109.482 37.5446C109.11 37.9057 108.921 38.3641 108.921 38.9084C108.921 39.3268 109.041 39.705 109.27 40.0258C109.494 40.341 109.895 40.6447 110.49 40.9541C111.075 41.2579 111.292 41.4298 111.372 41.5214C111.47 41.6418 111.521 41.7678 111.521 41.9168C111.521 42.1002 111.447 42.2549 111.292 42.3982C110.88 42.7706 110.233 42.6847 109.671 42.0486H109.677ZM105.96 41.6074C106.143 41.2808 106.229 40.9312 106.229 40.5186C106.229 39.8998 106.028 39.3955 105.622 38.9829C105.221 38.5704 104.734 38.3698 104.144 38.3698C103.766 38.3698 103.422 38.4615 103.101 38.6506C102.781 38.834 102.528 39.0918 102.334 39.4299C102.145 39.7623 102.053 40.1233 102.053 40.5015C102.053 40.8797 102.145 41.2292 102.339 41.573C102.534 41.9168 102.786 42.1804 103.107 42.3695C103.749 42.742 104.528 42.742 105.198 42.3695C105.53 42.1804 105.776 41.934 105.96 41.6189V41.6074ZM106.183 37.1722H107.563V43.825H106.183V43.2233C105.977 43.3952 105.753 43.5385 105.524 43.6474C105.077 43.8651 104.591 43.9797 104.064 43.9797C103.13 43.9797 102.317 43.6359 101.652 42.9597C100.993 42.2778 100.661 41.4469 100.661 40.4785C100.661 39.5101 100.999 38.7079 101.664 38.0317C102.328 37.3556 103.141 37.0175 104.081 37.0175C104.625 37.0175 105.123 37.1378 105.564 37.367C105.782 37.4816 105.982 37.6191 106.177 37.791V37.1722H106.183ZM94.8818 39.3783C95.0593 39.0574 95.3113 38.811 95.6493 38.6219C95.9872 38.4328 96.3424 38.3354 96.709 38.3354C97.0755 38.3354 97.4135 38.4328 97.7342 38.6219C98.055 38.8053 98.3128 39.0746 98.5018 39.4127C98.6965 39.7565 98.7939 40.1175 98.7939 40.49C98.7939 40.8625 98.6965 41.2177 98.5018 41.5616C98.3128 41.8996 98.0665 42.1575 97.7457 42.3466C97.4192 42.53 97.0755 42.6216 96.6975 42.6216C96.1075 42.6216 95.6207 42.4211 95.214 42.0085C94.8073 41.5959 94.6125 41.0917 94.6125 40.4671C94.6125 40.066 94.7042 39.6992 94.8818 39.3783ZM96.7834 37.0175C96.2564 37.0175 95.7638 37.1321 95.3228 37.3498C95.0937 37.4587 94.876 37.602 94.6698 37.7739V34.8457H93.2837V43.8307H94.6698V43.2119C94.8588 43.3838 95.065 43.5213 95.2827 43.6359C95.7238 43.8708 96.2221 43.9854 96.7605 43.9854C97.6999 43.9854 98.5132 43.6416 99.1834 42.9712C99.8478 42.295 100.186 41.4699 100.186 40.5186C100.186 39.5674 99.8536 38.7251 99.1891 38.0489C98.5304 37.367 97.7171 37.0232 96.7834 37.0232" fill="#160808"/>
<path d="M39.4873 46.3921C41.4405 45.4466 43.5999 44.6616 45.977 44.0541C48.5201 43.4066 50.9602 42.9998 53.3029 42.8336C55.6399 42.6674 58.0571 42.7477 60.5487 43.0628L59.3516 45.6644C53.154 45.2231 47.7354 46.1342 43.0844 48.3919C44.6767 49.0509 46.4581 49.5609 48.4342 49.9162C51.4586 50.4548 54.6146 50.558 57.8967 50.2314C61.1788 49.9105 64.0657 49.2114 66.5458 48.1455C69.026 47.074 70.8589 45.7388 72.0446 44.1344C73.2188 42.5299 73.5396 40.9254 72.984 39.3152C72.4341 37.705 71.1396 36.2897 69.0948 35.0691C67.0155 33.8257 64.4093 32.9145 61.2819 32.3415C58.1602 31.7628 55.0328 31.631 51.9111 31.9404C48.7894 32.2498 45.8968 32.9776 43.2448 34.1236C39.2009 35.8599 36.9441 37.9858 36.4744 40.4957C36.0734 42.6617 37.0815 44.6272 39.4815 46.3864L39.4873 46.3921ZM36.9269 68.0983C36.8582 70.5967 38.5651 72.7169 42.0419 74.4818C44.2987 75.6221 47.0023 76.4071 50.1411 76.8369C53.2858 77.2609 56.4189 77.2495 59.5177 76.7911C62.6222 76.3326 65.4174 75.4731 67.9091 74.2124C72.4685 71.9089 74.3759 69.1011 73.6312 65.8062L78.878 65.2561C79.6226 67.1356 79.3649 69.0208 78.099 70.9118C76.8274 72.7971 74.5935 74.5563 71.4031 76.1722C66.4886 78.6534 60.8638 79.9312 54.5058 79.9828C48.1536 80.0401 42.7464 78.9399 38.2729 76.6822C35.2715 75.1637 33.2381 73.3644 32.1727 71.2958C31.1073 69.2271 31.1761 67.1528 32.3732 65.0842C33.0262 63.961 33.9885 62.8952 35.2543 61.8924C33.8567 60.8266 32.8257 59.6519 32.1727 58.374C31.1073 56.3054 31.1761 54.2311 32.3732 52.1567C33.1007 50.9018 34.2119 49.7214 35.7068 48.6212C33.8453 47.3605 32.5966 46.0024 31.9608 44.5527C31.2219 42.8565 31.3193 41.04 32.2472 39.0918L25.8262 41.8537L21.9943 39.5674L79.2389 15.2654L83.615 17.0074L54.7693 29.4306C58.6872 29.3847 62.1984 29.7113 65.3201 30.399C68.4475 31.0866 71.1912 32.1295 73.5453 33.5391C77.7381 36.0375 79.5253 38.9428 78.9066 42.2549C78.288 45.5612 75.4241 48.3175 70.3033 50.5179C65.2456 52.6896 59.4375 53.6523 52.8676 53.4059C47.6495 53.2054 43.176 52.2942 39.4472 50.6726C37.8204 52.0536 36.9784 53.5606 36.9326 55.188C36.8925 56.7982 37.5856 58.248 39.0176 59.5545C39.0405 59.543 39.0634 59.5316 39.092 59.5144C41.1483 58.4772 43.4452 57.6291 45.9827 56.9759C48.5259 56.3283 50.966 55.9215 53.3087 55.761C55.6457 55.5949 58.0628 55.6694 60.5545 55.9903L59.3573 58.5918C52.9879 58.1334 47.4433 59.1075 42.7063 61.5028C42.5746 61.5658 42.4543 61.6346 42.3283 61.7033C44.5278 62.7749 47.134 63.5141 50.1469 63.9267C53.2915 64.3507 56.4246 64.3392 59.5234 63.8808C62.628 63.4224 65.4232 62.5686 67.9148 61.3079C72.4742 59.0044 74.3816 56.1965 73.637 52.8959L78.8837 52.3458C79.6284 54.2311 79.3706 56.1163 78.1047 58.0016C76.8331 59.8926 74.5993 61.646 71.4088 63.2619C66.4943 65.7489 60.8695 67.021 54.5115 67.084C48.4571 67.1356 43.2677 66.1385 38.9202 64.0871C37.6429 65.3306 36.9784 66.6772 36.9383 68.1155" fill="#160808"/>
<path d="M102.196 30.462H93.2951V31.1267H102.196V30.462Z" fill="#160808"/>
<path d="M41.3603 12.83C41.3603 13.5291 41.2114 14.1537 40.9135 14.6981C40.6157 15.2425 40.2032 15.6722 39.6763 15.9817C39.1493 16.2911 38.5422 16.4458 37.8605 16.4458C37.1789 16.4458 36.5718 16.2911 36.0448 15.9817C35.5178 15.6722 35.0997 15.2425 34.7961 14.6981C34.4925 14.1537 34.3436 13.5291 34.3436 12.83C34.3436 12.1309 34.4983 11.5121 34.8018 10.962C35.1111 10.4176 35.5236 9.98782 36.0563 9.67839C36.5832 9.36896 37.1846 9.21424 37.8605 9.21424C38.5364 9.21424 39.1436 9.36896 39.6706 9.67839C40.1918 9.98782 40.6099 10.4176 40.9078 10.9562C41.2056 11.4949 41.3603 12.1252 41.3603 12.83ZM41.2686 19.3797H45.1922V6.28035H41.2686V7.87909C40.7589 7.24876 40.1001 6.75596 39.2925 6.40069C38.4849 6.04541 37.62 5.86777 36.692 5.86777C35.4319 5.86777 34.315 6.17148 33.3355 6.78461C32.3618 7.39202 31.5942 8.22291 31.0386 9.26581C30.483 10.3087 30.2081 11.4891 30.2081 12.8014C30.2081 14.1136 30.4945 15.3456 31.073 16.4C31.6515 17.4543 32.4305 18.2795 33.41 18.8812C34.3952 19.4828 35.4892 19.7808 36.692 19.7808C37.5971 19.7808 38.4333 19.5974 39.2123 19.2307C39.9856 18.864 40.6729 18.3368 41.2686 17.6434V19.3682V19.3797ZM58.2576 9.79872L59.5979 7.15135C59.1225 6.77315 58.4924 6.46945 57.7134 6.22878C56.9344 5.98811 56.1211 5.8735 55.2791 5.8735C54.2366 5.8735 53.2743 6.0626 52.3808 6.43507C51.4929 6.80753 50.7139 7.32326 50.0552 7.97078C49.3965 8.61829 48.8867 9.3575 48.5202 10.1941C48.1593 11.0307 47.976 11.9132 47.976 12.8415C47.976 13.7698 48.165 14.7095 48.5488 15.5462C48.9326 16.3828 49.4595 17.122 50.1354 17.758C50.5077 18.1133 50.9259 18.4113 51.3612 18.6806L56.4246 16.526C56.2528 16.5432 56.081 16.5604 55.9034 16.5604C55.1473 16.5604 54.4772 16.3942 53.9044 16.0619C53.3259 15.7295 52.8848 15.2826 52.5698 14.7153C52.2547 14.148 52.0944 13.5177 52.0944 12.83C52.0944 12.1997 52.2433 11.598 52.5354 11.025C52.8275 10.452 53.2571 9.98782 53.8185 9.63255C54.3798 9.27727 55.0671 9.0939 55.8748 9.0939C56.8199 9.0939 57.6161 9.32884 58.2518 9.79872H58.2576ZM67.7086 7.89055H70.584V4.91082H67.7086V0H63.785V4.91082H62.0323V7.89055H63.785V13.3916L67.7086 11.7241V7.89055Z" fill="#A1232F"/>
<path d="M124.02 24.388V20.3539C124.02 20.0616 124.094 19.7923 124.237 19.5459C124.38 19.2995 124.587 19.099 124.856 18.95C125.125 18.801 125.446 18.7208 125.824 18.7208C126.368 18.7208 126.792 18.8869 127.09 19.225C127.388 19.5631 127.536 20.0502 127.536 20.692V24.388H128.419V20.5201C128.419 19.9872 128.327 19.5345 128.138 19.1563C127.955 18.7781 127.685 18.4916 127.342 18.2967C126.992 18.1019 126.58 17.9988 126.105 17.9988C125.589 17.9988 125.159 18.1019 124.804 18.3025C124.449 18.503 124.186 18.7494 124.02 19.0417V18.1936H123.137V24.388H124.02ZM116.911 23.4769C116.533 23.2649 116.235 22.9669 116.018 22.5887C115.8 22.2105 115.691 21.775 115.691 21.2936C115.691 20.8123 115.8 20.3711 116.018 19.9929C116.235 19.6147 116.533 19.3224 116.911 19.1047C117.289 18.8927 117.725 18.7838 118.206 18.7838C118.687 18.7838 119.122 18.8927 119.5 19.1047C119.878 19.3167 120.176 19.6147 120.394 19.9929C120.611 20.3711 120.72 20.8008 120.72 21.2936C120.72 21.7864 120.611 22.2162 120.394 22.5944C120.176 22.9726 119.878 23.2649 119.5 23.4826C119.122 23.6946 118.687 23.8035 118.206 23.8035C117.725 23.8035 117.289 23.6946 116.911 23.4826V23.4769ZM119.953 24.1702C120.468 23.8952 120.881 23.5055 121.184 23.007C121.488 22.5085 121.637 21.9412 121.637 21.2936C121.637 20.6461 121.488 20.0731 121.184 19.5803C120.881 19.0875 120.474 18.6978 119.953 18.4228C119.437 18.142 118.853 18.0045 118.206 18.0045C117.558 18.0045 116.974 18.142 116.459 18.4228C115.943 18.7036 115.531 19.0875 115.233 19.5803C114.929 20.0731 114.78 20.6461 114.78 21.2936C114.78 21.9412 114.929 22.5085 115.233 23.007C115.537 23.5055 115.943 23.8895 116.464 24.1702C116.98 24.451 117.564 24.5885 118.211 24.5885C118.859 24.5885 119.437 24.451 119.958 24.1702H119.953ZM113.096 16.8814C113.182 16.8298 113.251 16.7553 113.308 16.6693C113.366 16.5777 113.389 16.486 113.389 16.3771C113.389 16.2682 113.36 16.1708 113.308 16.0849C113.251 15.9989 113.182 15.9301 113.096 15.8786C113.011 15.827 112.919 15.7983 112.81 15.7983C112.701 15.7983 112.604 15.827 112.518 15.8786C112.432 15.9301 112.363 15.9989 112.312 16.0849C112.26 16.1708 112.232 16.2682 112.232 16.3714C112.232 16.4745 112.26 16.5719 112.312 16.6636C112.363 16.7496 112.432 16.8241 112.518 16.8756C112.604 16.9272 112.701 16.9559 112.81 16.9559C112.919 16.9559 113.011 16.9272 113.096 16.8756V16.8814ZM113.245 18.1936H112.363V24.388H113.245V18.1936ZM110.462 24.4854C110.719 24.4224 110.954 24.3307 111.166 24.2218L110.702 22.7319C110.525 22.8637 110.341 22.9268 110.147 22.9268C109.975 22.9268 109.837 22.8637 109.746 22.7434C109.648 22.6231 109.602 22.4454 109.602 22.2105V19.6032H110.966V18.1936H109.602V15.8728H107.747V18.1936H106.916V19.6032H107.747V22.3423C107.747 23.0471 107.918 23.5972 108.262 23.9926C108.606 24.388 109.087 24.5828 109.7 24.5828C109.952 24.5828 110.204 24.5484 110.467 24.4854H110.462ZM105.845 24.4109C106.206 24.2963 106.504 24.153 106.733 23.9754L106.097 22.7205C105.965 22.8236 105.799 22.9038 105.61 22.9612C105.415 23.0242 105.209 23.0528 104.986 23.0528C104.625 23.0528 104.31 22.9726 104.041 22.8179C103.771 22.6632 103.56 22.4454 103.411 22.1818C103.262 21.9125 103.187 21.6145 103.187 21.2879C103.187 20.9899 103.256 20.7034 103.393 20.4341C103.531 20.1648 103.737 19.947 104.001 19.7751C104.264 19.6032 104.591 19.523 104.974 19.523C105.421 19.523 105.799 19.6319 106.097 19.8554L106.733 18.6004C106.509 18.4228 106.212 18.2795 105.839 18.1649C105.473 18.0503 105.083 17.993 104.688 17.993C104.195 17.993 103.737 18.0847 103.319 18.2623C102.901 18.44 102.528 18.6807 102.219 18.9901C101.91 19.2995 101.664 19.6491 101.492 20.0445C101.32 20.4398 101.234 20.8581 101.234 21.2994C101.234 21.7406 101.326 22.1818 101.509 22.5772C101.692 22.9726 101.939 23.3222 102.259 23.6259C102.58 23.9238 102.947 24.1588 103.365 24.3307C103.783 24.5026 104.23 24.5828 104.699 24.5828C105.1 24.5828 105.484 24.5255 105.851 24.4109H105.845ZM95.8956 22.7835C95.6435 22.6345 95.4488 22.434 95.3056 22.1761C95.1624 21.9182 95.0879 21.626 95.0879 21.2936C95.0879 20.9613 95.1624 20.6691 95.3056 20.4112C95.4488 20.1533 95.6493 19.9528 95.9013 19.8038C96.1533 19.6548 96.434 19.5803 96.7548 19.5803C97.0755 19.5803 97.3619 19.6548 97.6082 19.8038C97.8545 19.9528 98.0493 20.1533 98.1925 20.4112C98.3357 20.6691 98.4101 20.9613 98.4101 21.2994C98.4101 21.6375 98.3414 21.924 98.1982 22.1818C98.055 22.4397 97.8602 22.6403 97.6082 22.7892C97.3562 22.9382 97.0698 23.0127 96.749 23.0127C96.4283 23.0127 96.1419 22.9382 95.8899 22.7892L95.8956 22.7835ZM97.3906 24.3307C97.7571 24.1588 98.0836 23.9066 98.3643 23.58V24.3994H100.22V18.205H98.3643V18.9614C98.1237 18.6635 97.8087 18.4285 97.4307 18.2623C97.0469 18.0962 96.6402 18.0102 96.1992 18.0102C95.6035 18.0102 95.0708 18.1535 94.6125 18.4457C94.1486 18.7322 93.7877 19.1276 93.53 19.6204C93.2665 20.1132 93.1347 20.6748 93.1347 21.2936C93.1347 21.9125 93.2722 22.497 93.5414 22.9955C93.8164 23.4941 94.1829 23.8837 94.6469 24.1702C95.1109 24.4567 95.6321 24.5943 96.1992 24.5943C96.6287 24.5943 97.024 24.5083 97.3906 24.3364" fill="#A1232F"/>
<path d="M134.45 15.4315L138.7 6.0855H137.703L135.475 11.2255L133.024 6.0855H132.027L134.971 12.1309L133.448 15.4315H134.444H134.45ZM129.037 12.2856V8.19423C129.037 7.93064 129.117 7.68424 129.278 7.45503C129.438 7.22582 129.644 7.03672 129.896 6.88773C130.148 6.74448 130.423 6.66998 130.71 6.66998C130.853 6.66998 130.996 6.68717 131.156 6.71583C131.311 6.75021 131.449 6.79605 131.569 6.85335L131.93 6.10842C131.792 6.04539 131.632 5.99381 131.443 5.9537C131.254 5.91359 131.071 5.89067 130.887 5.89067C130.475 5.89067 130.114 5.98235 129.799 6.17145C129.484 6.36055 129.232 6.6356 129.031 6.99661V6.0855H128.149V12.2799H129.031L129.037 12.2856ZM121.694 11.386C121.333 11.1682 121.052 10.8703 120.846 10.4921C120.64 10.1139 120.537 9.67836 120.537 9.18556C120.537 8.69276 120.64 8.25726 120.846 7.87907C121.052 7.50087 121.333 7.2029 121.694 6.98515C122.055 6.7674 122.462 6.65852 122.926 6.65852C123.389 6.65852 123.802 6.7674 124.157 6.98515C124.518 7.2029 124.799 7.50087 124.999 7.87907C125.199 8.25726 125.303 8.69276 125.303 9.18556C125.303 9.67836 125.199 10.1081 124.993 10.4921C124.787 10.876 124.506 11.174 124.151 11.386C123.796 11.6037 123.384 11.7126 122.92 11.7126C122.456 11.7126 122.043 11.6037 121.688 11.386H121.694ZM124.197 12.0793C124.644 11.8157 124.999 11.449 125.268 10.9791V12.2856H126.15V6.0855H125.268V7.3748C125.028 6.91065 124.684 6.54965 124.226 6.28606C123.768 6.02247 123.263 5.89067 122.702 5.89067C122.112 5.89067 121.585 6.03393 121.121 6.32044C120.657 6.60695 120.291 6.99661 120.021 7.48941C119.752 7.98221 119.621 8.54377 119.621 9.1741C119.621 9.80443 119.758 10.3775 120.027 10.876C120.296 11.3745 120.669 11.7642 121.133 12.045C121.597 12.3315 122.124 12.469 122.702 12.469C123.252 12.469 123.75 12.3372 124.197 12.0679V12.0793ZM113.767 12.2742V8.24007C113.767 7.94783 113.841 7.67851 113.984 7.43211C114.127 7.18571 114.334 6.98515 114.603 6.83616C114.872 6.68717 115.193 6.60695 115.577 6.60695C116.121 6.60695 116.545 6.77313 116.842 7.11121C117.14 7.4493 117.289 7.93637 117.289 8.57816V12.2742H118.171V8.40625C118.171 7.87334 118.08 7.42065 117.891 7.04245C117.707 6.66425 117.438 6.37774 117.095 6.18291C116.745 5.98235 116.333 5.88494 115.852 5.88494C115.342 5.88494 114.906 5.98808 114.551 6.18864C114.196 6.3892 113.933 6.6356 113.767 6.92784V6.07977H112.885V12.2742H113.767ZM110.725 4.75608C110.811 4.70451 110.88 4.63001 110.931 4.54406C110.989 4.45238 111.011 4.36069 111.011 4.25182C111.011 4.14294 110.983 4.04553 110.931 3.95958C110.874 3.87362 110.805 3.80486 110.725 3.75329C110.639 3.70171 110.548 3.67306 110.439 3.67306C110.33 3.67306 110.232 3.70171 110.147 3.75329C110.061 3.80486 109.992 3.87362 109.94 3.96531C109.889 4.05126 109.86 4.14867 109.86 4.25182C109.86 4.35496 109.889 4.45238 109.94 4.54406C109.992 4.63001 110.061 4.70451 110.147 4.75608C110.232 4.80765 110.33 4.8363 110.439 4.8363C110.548 4.8363 110.639 4.80765 110.725 4.75608ZM110.874 6.07404H109.992V12.2684H110.874V6.0855V6.07404ZM107.993 1.8623H107.111V12.2856H107.993V1.87377V1.8623ZM104.619 11.8272C105.02 11.4032 105.221 10.6983 105.221 9.70128V6.06831H104.338V9.54084C104.338 10.3259 104.207 10.8817 103.943 11.2141C103.68 11.5464 103.233 11.7126 102.603 11.7126C101.973 11.7126 101.532 11.5464 101.268 11.2141C101.005 10.8817 100.867 10.3259 100.867 9.54084V6.06831H99.9853V9.70128C99.9853 10.6926 100.186 11.4032 100.592 11.8272C100.993 12.2512 101.669 12.4633 102.609 12.4633C103.548 12.4633 104.224 12.2512 104.625 11.8272H104.619ZM97.8373 12.2799C98.1982 12.1596 98.5189 11.9934 98.7882 11.7814L98.4216 11.1911C98.2096 11.3631 97.9633 11.4891 97.6827 11.5808C97.402 11.6725 97.1042 11.7183 96.7891 11.7183C96.2908 11.7183 95.844 11.6095 95.4602 11.386C95.0707 11.1625 94.7729 10.8588 94.5552 10.4749C94.3376 10.0909 94.2287 9.65544 94.2287 9.1741C94.2287 8.69276 94.3376 8.26872 94.5495 7.87907C94.7614 7.49514 95.065 7.19144 95.4488 6.96796C95.8326 6.74448 96.2793 6.62987 96.7891 6.62987C97.4364 6.62987 97.9805 6.80751 98.433 7.15705L98.7939 6.56684C98.5304 6.35482 98.2096 6.18291 97.8431 6.06258C97.4765 5.94224 97.087 5.87921 96.6803 5.87921C96.2049 5.87921 95.7638 5.96516 95.3571 6.12561C94.9505 6.29179 94.5953 6.521 94.2918 6.8247C93.9882 7.12267 93.7476 7.47222 93.5815 7.87334C93.4097 8.27445 93.3295 8.70422 93.3295 9.1741C93.3295 9.64398 93.4154 10.0795 93.5872 10.4806C93.7591 10.8817 93.9996 11.2313 94.3089 11.5292C94.6182 11.8272 94.9734 12.0564 95.3801 12.2226C95.7867 12.3888 96.2221 12.469 96.686 12.469C97.0984 12.469 97.4822 12.406 97.8488 12.2856" fill="#A1232F"/>
</g>
<defs>
<clipPath id="clip0_1078_8701">
<rect width="116.706" height="80" fill="white" transform="translate(22)"/>
</clipPath>
</defs>
</svg>
