<svg width="200" height="72" viewBox="0 0 200 72" fill="none" xmlns="http://www.w3.org/2000/svg">
<g clip-path="url(#clip0_1078_9535)">
<path d="M77.0242 67.9146V61.6501C74.7638 64.073 72.0421 66.02 69.019 67.3767C65.9959 68.7334 62.7322 69.4725 59.4195 69.5506C44.2633 69.5506 34.9149 56.7626 34.9149 42.4206C34.9149 28.0786 45.2639 15.831 60.1742 15.831C65.7123 15.9118 71.0206 18.0582 75.0584 21.8495C75.736 22.4796 76.3455 23.1791 76.877 23.9365H77.0634V17.5825H88.1278V67.9407L77.0242 67.9146ZM61.9592 26.9066C52.9724 26.9066 46.9893 34.3413 46.9893 42.9517C46.9342 44.9579 47.2799 46.955 48.0059 48.8261C48.732 50.6972 49.824 52.4046 51.218 53.8486C52.612 55.2925 54.2799 56.4439 56.1243 57.2354C57.9686 58.027 59.9523 58.4427 61.9592 58.4583C70.9386 58.4583 76.6683 51.2043 76.6683 42.579C76.6683 33.9537 70.8715 26.901 61.9592 26.901V26.9066Z" fill="#26201B"/>
<path d="M146.07 53.4908C142.172 63.4726 134.094 69.5359 123.203 69.5359C119.968 69.6903 116.742 69.0716 113.793 67.731C110.844 66.3905 108.258 64.3667 106.247 61.8273V67.9054H95.1693V0.764252H107.206V22.0658C111.417 18.0035 117.054 15.7561 122.905 15.8069C137.513 15.8069 148.218 28.3284 148.218 42.4841C148.193 46.2547 147.464 49.9875 146.07 53.4908ZM121.487 26.9011C117.494 26.9316 113.676 28.5432 110.869 31.3828C108.062 34.2225 106.494 38.0589 106.51 42.0518C106.51 50.9436 112.407 58.4789 121.671 58.4789C130.651 58.4789 136.187 51.225 136.187 42.5996C136.187 33.9743 130.282 26.903 121.483 26.903L121.487 26.9011Z" fill="#26201B"/>
<path d="M0 56.7745V1.28468H12.9501V57.4993L0 56.7745Z" fill="#26201B"/>
<path d="M32.5542 56.715L0 56.782L13.3712 68.0757H32.5635L32.5542 56.715Z" fill="#26201B"/>
<path d="M179.673 46.7335C180.114 46.7335 180.548 46.8006 180.977 46.8397L181.191 45.636C180.723 45.5894 180.259 45.5484 179.781 45.5205L179.673 46.7335Z" fill="#26201B"/>
<path d="M177.286 46.6462H178.59L178.697 45.4295H177.293L177.286 46.6462Z" fill="#26201B"/>
<path d="M174.765 45.4695L174.871 46.6937H176.209V45.4695H174.765Z" fill="#26201B"/>
<path d="M182.06 46.9498L183.364 47.1361L183.685 45.9529C183.224 45.8802 182.753 45.8057 182.282 45.7461L182.06 46.9498Z" fill="#26201B"/>
<path d="M158.398 50.4208L159.381 51.3021C159.702 51.073 160.05 50.8419 160.384 50.6332L159.547 49.6438C159.15 49.881 158.766 50.1404 158.398 50.4208Z" fill="#26201B"/>
<path d="M188.993 48.5525C189.401 48.6997 189.798 48.8544 190.19 49.0128L190.858 47.9563C190.424 47.77 189.983 47.6116 189.521 47.442L188.993 48.5525Z" fill="#26201B"/>
<path d="M169.779 45.9986L170.112 47.1949C170.558 47.1179 170.993 47.0508 171.417 46.9936L171.197 45.7825C170.714 45.8421 170.246 45.9185 169.779 45.9986Z" fill="#26201B"/>
<path d="M172.277 45.6617L172.492 46.8654C172.92 46.8244 173.347 46.7853 173.781 46.7592L173.675 45.535C173.207 45.5667 172.74 45.6151 172.277 45.6617Z" fill="#26201B"/>
<path d="M191.153 49.4413C191.536 49.6152 191.903 49.7953 192.256 49.9816L193.061 48.9922C192.668 48.7779 192.256 48.5711 191.831 48.3773L191.153 49.4413Z" fill="#26201B"/>
<path d="M193.954 49.48L193.149 50.4694C193.51 50.6893 193.857 50.9166 194.183 51.1384L195.126 50.2347C194.755 50.0092 194.362 49.7539 193.954 49.48Z" fill="#26201B"/>
<path d="M184.426 47.3222C184.855 47.4023 185.282 47.4955 185.697 47.5905L186.131 46.4334C185.671 46.3328 185.213 46.2321 184.752 46.1464L184.426 47.3222Z" fill="#26201B"/>
<path d="M186.739 47.8567C187.157 47.9685 187.572 48.089 187.983 48.2182L188.531 47.1002C188.09 46.9605 187.635 46.8263 187.193 46.6996L186.739 47.8567Z" fill="#26201B"/>
<path d="M194.991 51.7938C195.286 52.0417 195.565 52.2951 195.834 52.5503L196.89 51.7454C196.59 51.451 196.27 51.1715 195.934 50.8957L194.991 51.7938Z" fill="#26201B"/>
<path d="M156.558 52.0102L157.729 52.7257C157.997 52.4518 158.288 52.1909 158.591 51.9301L157.602 51.0413C157.227 51.358 156.886 51.6841 156.558 52.0102Z" fill="#26201B"/>
<path d="M162.629 48.0549L163.298 49.1114C163.686 48.9511 164.081 48.7909 164.489 48.6437L163.92 47.5257C163.486 47.6934 163.058 47.8667 162.629 48.0549Z" fill="#26201B"/>
<path d="M160.464 49.1181L161.301 50.1076C161.655 49.9212 162.024 49.7349 162.398 49.5486L161.729 48.4865C161.294 48.6686 160.871 48.8796 160.464 49.1181Z" fill="#26201B"/>
<path d="M164.951 47.1788L165.525 48.2968C165.925 48.1701 166.341 48.0434 166.762 47.9242L166.315 46.7615C165.847 46.8919 165.392 47.026 164.951 47.1788Z" fill="#26201B"/>
<path d="M167.358 46.4954L167.805 47.6581C168.214 47.5575 168.622 47.4718 169.043 47.3842L168.715 46.201C168.255 46.2886 167.82 46.3873 167.358 46.4954Z" fill="#26201B"/>
<path d="M198.509 14.9638V18.6475V53.6557C198.221 53.2348 197.906 52.8328 197.567 52.452L196.504 53.2737C197.751 54.6216 198.464 56.3778 198.509 58.2134V58.5861C198.458 59.7658 198.156 60.921 197.623 61.9748C197.091 63.0287 196.339 63.9569 195.42 64.6978L195.293 64.8133L195.107 64.981C194.947 65.1207 194.773 65.2493 194.533 65.4412C194.379 65.5675 194.219 65.6856 194.052 65.7953C193.886 65.9071 193.585 66.1157 193.344 66.2704L192.999 66.4772C191.522 67.3502 189.953 68.0588 188.321 68.5902L188.006 68.6965L186.903 69.03C186.476 69.1455 186.021 69.2704 185.511 69.3915L185.338 69.4381C182.649 70.0575 179.898 70.3701 177.139 70.3697H176.591C173.812 70.3675 171.042 70.0487 168.335 69.4194H168.228C167.707 69.2927 167.252 69.1791 166.831 69.0579C166.41 68.9368 166.095 68.8381 165.733 68.7244L165.413 68.6182C163.754 68.0789 162.162 67.3544 160.665 66.4586L160.404 66.3039L159.689 65.8232L159.154 65.43C158.981 65.2903 158.8 65.1561 158.64 65.0145C158.48 64.8729 158.513 64.899 158.439 64.8282L158.323 64.722C157.407 63.9759 156.659 63.0445 156.127 61.989C155.596 60.9335 155.294 59.7776 155.241 58.5972V58.2357C155.278 56.4761 155.934 54.7858 157.093 53.4619L155.917 52.7464C155.678 53.0325 155.455 53.3317 155.249 53.6427V18.1016V14.3749H153.773V58.6494C153.831 59.9759 154.169 61.2749 154.767 62.4608C155.364 63.6467 156.206 64.6924 157.237 65.5288L157.343 65.622L157.591 65.8512C157.777 66.0058 157.963 66.1586 158.226 66.3468C158.489 66.535 158.571 66.6151 158.748 66.7344C158.925 66.8536 159.255 67.0884 159.523 67.2561L159.884 67.476C161.46 68.4085 163.133 69.1664 164.873 69.7362L165.217 69.8424C165.59 69.9691 165.979 70.0902 166.374 70.1964C166.769 70.3026 167.317 70.4573 167.906 70.5896L168.022 70.6231C170.839 71.2748 173.722 71.6024 176.613 71.5995H177.148C180.04 71.6016 182.922 71.2741 185.74 70.6231L185.926 70.5765C186.448 70.4498 186.936 70.3231 187.383 70.2039C187.831 70.0846 188.166 69.9747 188.546 69.8499L188.891 69.7436C190.642 69.1675 192.326 68.4028 193.913 67.4629L194.24 67.2617C194.509 67.094 194.762 66.917 195.016 66.74C195.269 66.563 195.36 66.4866 195.617 66.2928L196.176 65.8586L196.417 65.6387L196.523 65.5381C197.551 64.6985 198.391 63.6519 198.988 62.4663C199.585 61.2807 199.925 59.9827 199.987 58.6569V14.0004L198.509 14.9638Z" fill="#26201B"/>
<path d="M197.798 8.14477H196.281V11.1205H197.798V8.14477Z" fill="#26201B"/>
<path d="M199.676 11.977H198.159V14.9527H199.676V11.977Z" fill="#26201B"/>
<path d="M199.13 10.0355C201.85 15.1503 197.999 21.1279 190.305 24.2788C180.636 28.2309 168.389 27.575 160.606 23.0825C159.689 22.5546 158.816 21.9532 157.997 21.2844C150.544 15.1876 152.722 7.02997 163.68 2.56172C173.127 -1.33077 185.209 -0.661835 192.837 3.75797C193.731 4.26922 194.581 4.85252 195.379 5.50204C196.322 6.27683 197.155 7.17638 197.855 8.17591L169.734 19.6689C170.672 20.1345 171.671 20.4674 172.7 20.6583C176.742 21.5607 180.96 21.2542 184.829 19.777C188.352 18.3404 190.432 16.2795 189.998 13.7584L199.13 10.0355ZM164.669 15.851L184.728 7.65232H184.669C182.314 6.3839 179.701 5.66817 177.029 5.55938C174.356 5.45058 171.694 5.95157 169.244 7.02438C163.982 9.18211 162.396 12.4653 164.692 15.877" fill="#26201B"/>
<path d="M191.513 13.8439H189.996V16.8197H191.513V13.8439Z" fill="#26201B"/>
</g>
<defs>
<clipPath id="clip0_1078_9535">
<rect width="200" height="71.6039" fill="white"/>
</clipPath>
</defs>
</svg>
