<svg width="152" height="80" viewBox="0 0 152 80" fill="none" xmlns="http://www.w3.org/2000/svg">
<rect width="12" height="80" fill="#59718C"/>
<g clip-path="url(#clip0_1078_8693)">
<path d="M99.8754 31.9141H91.2318V32.5609H99.8754V31.9141Z" fill="black"/>
<path d="M127.395 67.0849L127.668 67.241L126.977 68.3563L126.743 68.2559C126.654 68.2126 126.557 68.1861 126.458 68.1779C126.26 68.1865 126.073 68.2703 125.934 68.4121C125.709 68.636 125.554 68.9209 125.488 69.2318C125.374 69.8738 125.331 70.5265 125.36 71.178V73.4588H123.994V67.0012H125.36V67.3581C125.441 67.2799 125.531 67.2107 125.627 67.1518C125.883 66.9674 126.187 66.8627 126.501 66.8508C126.816 66.8389 127.127 66.9203 127.395 67.0849ZM121.607 69.3155H118.066C118.2 68.9626 118.441 68.6603 118.754 68.4505C119.068 68.2406 119.439 68.1337 119.817 68.1444C120.117 68.1426 120.414 68.2074 120.687 68.334C120.938 68.4493 121.161 68.6188 121.339 68.8303C121.453 68.9775 121.543 69.1411 121.607 69.3155ZM123.14 70.2635C123.16 69.4755 122.91 68.7045 122.432 68.0775C122.125 67.6757 121.727 67.3528 121.27 67.1355C120.813 66.9183 120.311 66.813 119.806 66.8284C119.313 66.8137 118.823 66.9168 118.378 67.1292C117.933 67.3416 117.545 67.6571 117.246 68.0496C116.739 68.6962 116.475 69.5 116.5 70.3211C116.524 71.1423 116.836 71.9289 117.38 72.5442C117.688 72.8916 118.069 73.1655 118.497 73.346C118.924 73.5264 119.387 73.6088 119.85 73.5871C120.281 73.5922 120.71 73.5204 121.116 73.3751C121.491 73.2259 121.835 73.0085 122.131 72.7338C122.456 72.4251 122.722 72.0606 122.917 71.6576L123.051 71.3955L121.897 70.8211L121.752 71.0609C121.605 71.3416 121.417 71.599 121.194 71.8249C121.008 71.9838 120.795 72.1067 120.564 72.1874C120.32 72.2781 120.061 72.3253 119.8 72.3268C119.549 72.3338 119.3 72.2877 119.068 72.1916C118.837 72.0955 118.628 71.9515 118.456 71.7691C118.145 71.4495 117.949 71.0356 117.899 70.5925H123.152L123.14 70.2635ZM115.055 66.9789H116.242V68.2169H115.049V73.4365H113.694V68.2169H112.662V66.9789H113.694V64.7985H115.049L115.055 66.9789ZM110.794 67.2076C110.393 66.9673 109.935 66.8368 109.467 66.829C108.999 66.8211 108.538 66.9363 108.129 67.163C107.927 67.2742 107.74 67.409 107.571 67.5645V67.0068H106.205V73.4644H107.554V71.0163C107.534 70.5067 107.568 69.9964 107.655 69.4939C107.751 69.1151 107.966 68.777 108.268 68.5292C108.554 68.2773 108.924 68.1402 109.305 68.1444C109.586 68.1295 109.864 68.2122 110.091 68.3786C110.305 68.5594 110.448 68.8105 110.493 69.0868C110.565 69.5104 110.591 69.9403 110.571 70.3694V73.4644H111.915V70.1464C111.946 69.5086 111.855 68.8708 111.647 68.2671C111.467 67.8455 111.166 67.4866 110.783 67.2355L110.794 67.2076ZM103.199 68.8638C103.023 68.6489 102.799 68.4773 102.546 68.3619C102.274 68.2353 101.977 68.1705 101.677 68.1723C101.299 68.1615 100.928 68.2685 100.614 68.4784C100.3 68.6882 100.06 68.9905 99.9256 69.3434H103.467C103.404 69.1701 103.313 69.0081 103.199 68.8638ZM105.006 70.5925H99.7527C99.8031 71.0356 99.9992 71.4495 100.31 71.7691C100.482 71.9515 100.691 72.0955 100.923 72.1916C101.154 72.2877 101.404 72.3338 101.654 72.3268C101.913 72.3258 102.17 72.2786 102.413 72.1874C102.646 72.1079 102.861 71.9849 103.048 71.8249C103.271 71.599 103.459 71.3416 103.606 71.0609L103.751 70.8211L104.894 71.4178L104.766 71.6799C104.57 72.0823 104.303 72.4467 103.98 72.7562C103.684 73.0308 103.34 73.2482 102.965 73.3974C102.573 73.5371 102.16 73.6088 101.743 73.6094C101.28 73.6311 100.817 73.5487 100.39 73.3683C99.9625 73.1878 99.5808 72.9139 99.2731 72.5666C98.7288 71.9512 98.4174 71.1646 98.3929 70.3435C98.3685 69.5223 98.6325 68.7185 99.1393 68.0719C99.438 67.6794 99.8261 67.3639 100.271 67.1515C100.716 66.9391 101.206 66.836 101.699 66.8507C102.204 66.8353 102.706 66.9406 103.163 67.1578C103.62 67.3751 104.018 67.698 104.325 68.0998C104.803 68.7268 105.053 69.4978 105.034 70.2858L105.006 70.5925ZM96.641 71.4122C96.2915 71.852 95.7999 72.1564 95.2505 72.2734C94.7011 72.3904 94.1281 72.3127 93.6297 72.0535C93.3037 71.8742 93.0321 71.6103 92.8434 71.2895C92.658 70.9674 92.5617 70.6017 92.5646 70.23C92.5587 69.9571 92.6102 69.686 92.7159 69.4342C92.8216 69.1825 92.979 68.9559 93.178 68.769C93.386 68.5658 93.6332 68.4072 93.9045 68.3027C94.1759 68.1982 94.4656 68.15 94.7562 68.1611C95.1207 68.1455 95.4834 68.221 95.8115 68.3807C96.1396 68.5403 96.4228 68.7792 96.6354 69.0757L96.7972 69.2876L97.8734 68.6184L97.7284 68.3675C97.5437 68.0535 97.2993 67.7788 97.0091 67.5589C96.7042 67.3318 96.3629 67.1583 95.9997 67.0459C95.5038 66.8831 94.9804 66.8215 94.4603 66.8646C93.9402 66.9077 93.434 67.0547 92.9717 67.2968C92.4329 67.5896 91.9838 68.0233 91.6724 68.5515C91.3666 69.0781 91.2068 69.6768 91.2095 70.2858C91.2045 70.7278 91.2911 71.1662 91.4638 71.5731C91.6366 71.98 91.8918 72.3468 92.2133 72.6502C92.5479 72.9693 92.9425 73.2189 93.3742 73.3845C93.8059 73.5501 94.2661 73.6284 94.7283 73.6149C95.3315 73.6241 95.9287 73.4944 96.4737 73.2357C96.9775 72.9928 97.4069 72.6192 97.7173 72.1539L97.8846 71.9085L96.8083 71.2003L96.641 71.4122ZM133.535 52.8259H134.985L131.232 61.4248H129.782L131.042 58.5473L128.812 53.4672L128.371 54.1809L128.137 54.0806C128.05 54.0375 127.955 54.011 127.858 54.0025C127.649 54.0049 127.449 54.0889 127.3 54.2367C127.077 54.4621 126.922 54.7464 126.854 55.0564C126.737 55.6981 126.694 56.3511 126.726 57.0026V59.2834H125.388V52.8203H126.754V53.1772C126.994 52.9515 127.293 52.7983 127.617 52.7352C127.941 52.6721 128.275 52.7016 128.583 52.8203H129.972L131.789 56.8911L133.535 52.8259ZM121.769 57.8447C121.537 57.9856 121.279 58.0776 121.011 58.1151C120.743 58.1526 120.469 58.1347 120.208 58.0626C119.947 57.9905 119.703 57.8657 119.492 57.6959C119.281 57.5261 119.107 57.3148 118.98 57.0751C118.796 56.7606 118.697 56.4027 118.696 56.0379C118.697 55.6745 118.791 55.3173 118.969 55.0007C119.146 54.6843 119.404 54.4207 119.716 54.2367C120.025 54.058 120.375 53.9656 120.731 53.969C120.999 53.9621 121.265 54.0117 121.512 54.1145C121.759 54.2173 121.981 54.3711 122.164 54.5657C122.359 54.7606 122.512 54.9932 122.614 55.2492C122.715 55.5052 122.764 55.7793 122.756 56.0546C122.762 56.4254 122.67 56.7912 122.488 57.1142C122.319 57.424 122.063 57.6778 121.752 57.8447H121.769ZM120.637 59.4061C121.129 59.411 121.616 59.3002 122.059 59.0827C122.285 58.9682 122.498 58.8299 122.694 58.67V59.2276H124.033V52.8203H122.694V53.417C122.515 53.2577 122.316 53.121 122.103 53.0099C121.657 52.7793 121.161 52.6625 120.659 52.6697C120.221 52.6628 119.786 52.747 119.381 52.9169C118.977 53.0868 118.613 53.3387 118.311 53.6568C117.995 53.9653 117.746 54.3352 117.578 54.7437C117.41 55.1522 117.327 55.5908 117.335 56.0323C117.327 56.4775 117.407 56.9199 117.572 57.3335C117.737 57.7472 117.982 58.1238 118.294 58.4414C118.597 58.7574 118.96 59.008 119.363 59.1778C119.766 59.3475 120.199 59.4328 120.637 59.4284V59.4061ZM112.829 54.3427C112.527 54.5904 112.312 54.9285 112.216 55.3074C112.129 55.8099 112.096 56.3202 112.116 56.8298V59.2778H110.833V52.8203H112.183V53.3779C112.353 53.226 112.54 53.0932 112.74 52.982C113.149 52.7542 113.611 52.6384 114.079 52.6463C114.547 52.6541 115.005 52.7853 115.406 53.0266C115.798 53.2842 116.102 53.656 116.276 54.0917C116.486 54.6948 116.577 55.3331 116.543 55.971V59.3169H115.199V56.2219C115.22 55.7928 115.194 55.3628 115.121 54.9393C115.076 54.663 114.934 54.4119 114.72 54.2311C114.493 54.0639 114.215 53.9811 113.934 53.9969C113.553 53.9963 113.185 54.1329 112.896 54.3817L112.829 54.3427ZM109.517 50.718C109.345 50.546 109.111 50.4494 108.867 50.4494C108.624 50.4494 108.39 50.546 108.218 50.718C108.131 50.8027 108.062 50.9042 108.015 51.0163C107.968 51.1284 107.944 51.2489 107.945 51.3704C107.944 51.4911 107.968 51.6107 108.015 51.7218C108.062 51.833 108.131 51.9335 108.218 52.0173C108.302 52.1038 108.403 52.1725 108.515 52.2194C108.627 52.2663 108.746 52.2905 108.867 52.2905C108.988 52.2905 109.108 52.2663 109.22 52.2194C109.331 52.1725 109.432 52.1038 109.517 52.0173C109.603 51.9333 109.671 51.8326 109.717 51.7214C109.763 51.6102 109.786 51.4908 109.785 51.3704C109.786 51.2502 109.763 51.1309 109.717 51.0198C109.671 50.9087 109.603 50.8079 109.517 50.7235V50.718ZM108.19 52.8649H109.551V59.2778H108.195L108.19 52.8649ZM106.589 50.6009H105.24V59.3169H106.589V50.6009ZM99.8977 52.8649V55.8985C99.8804 56.3319 99.9122 56.7659 99.9925 57.1922C100.071 57.4741 100.247 57.7191 100.489 57.8837C100.764 58.0506 101.079 58.1389 101.401 58.1389C101.722 58.1389 102.037 58.0506 102.312 57.8837C102.545 57.7277 102.718 57.4978 102.803 57.2313C102.896 56.7897 102.93 56.3378 102.903 55.8873V52.8203H104.27V55.9933C104.304 56.6591 104.195 57.3245 103.952 57.9451C103.756 58.4093 103.418 58.7997 102.987 59.0604C102.509 59.3322 101.965 59.4673 101.414 59.4507C100.859 59.4669 100.31 59.332 99.8252 59.0604C99.3927 58.7981 99.0519 58.4085 98.8493 57.9451C98.6121 57.3055 98.5077 56.6243 98.5426 55.9431V52.8203L99.8977 52.8649ZM96.6577 57.2703C96.441 57.5625 96.1571 57.7982 95.8299 57.9574C95.5028 58.1166 95.1421 58.1946 94.7785 58.1848C94.3896 58.1896 94.0058 58.0956 93.6632 57.9116C93.3375 57.7338 93.0673 57.4694 92.8825 57.1476C92.6953 56.8259 92.5972 56.4603 92.5981 56.0881C92.592 55.8143 92.6435 55.5423 92.7492 55.2897C92.8548 55.0371 93.0123 54.8094 93.2115 54.6215C93.4207 54.4204 93.6682 54.2635 93.9393 54.16C94.2105 54.0565 94.4996 54.0087 94.7896 54.0192C95.1532 54.006 95.5146 54.0819 95.8422 54.2403C96.1697 54.3987 96.4535 54.6349 96.6689 54.9282L96.8306 55.1457L97.9124 54.4765L97.7619 54.2256C97.5756 53.9112 97.3316 53.6349 97.0425 53.4114C96.7365 53.1908 96.3978 53.0196 96.0388 52.9039C95.5417 52.7413 95.017 52.6802 94.4959 52.7243C93.9748 52.7683 93.4678 52.9167 93.0052 53.1604C92.4717 53.4379 92.0228 53.854 91.7058 54.365C91.3955 54.8879 91.2336 55.4856 91.2374 56.0937C91.2314 56.5359 91.3175 56.9745 91.4903 57.3816C91.6631 57.7887 91.9188 58.1553 92.2412 58.4581C92.5753 58.7782 92.9697 59.0288 93.4014 59.1954C93.8331 59.3619 94.2936 59.4411 94.7562 59.4284C95.3594 59.4376 95.9566 59.3078 96.5016 59.0492C97.0053 58.8087 97.4349 58.4369 97.7451 57.9729L97.9124 57.722L96.8362 57.0138L96.6577 57.2703ZM129.815 40.7863C129.749 40.6129 129.659 40.4496 129.548 40.3011C129.369 40.0878 129.144 39.918 128.89 39.8048C128.618 39.6764 128.321 39.6098 128.02 39.6096C127.546 39.5986 127.087 39.7703 126.737 40.0892C126.533 40.2838 126.374 40.5221 126.274 40.7863H129.815ZM125.588 44.015C125.02 43.3738 124.707 42.5465 124.707 41.6897C124.7 40.9022 124.963 40.136 125.455 39.5204C125.751 39.1267 126.138 38.8098 126.582 38.5963C127.027 38.3828 127.516 38.279 128.009 38.2936C128.514 38.2787 129.016 38.3842 129.473 38.6014C129.929 38.8186 130.328 39.1412 130.635 39.5427C131.113 40.1722 131.364 40.9443 131.349 41.7343V42.0298H126.096C126.147 42.4729 126.343 42.8866 126.654 43.2065C126.825 43.3895 127.034 43.5338 127.265 43.63C127.497 43.7261 127.747 43.7718 127.997 43.7641C128.257 43.7649 128.514 43.7176 128.756 43.6247C128.986 43.5449 129.199 43.424 129.386 43.2678C129.615 43.0413 129.812 42.7842 129.972 42.5038L130.111 42.264L131.26 42.8607L131.126 43.1228C130.929 43.5252 130.663 43.8896 130.34 44.1991C130.043 44.4716 129.699 44.6871 129.325 44.8348C128.919 44.9796 128.49 45.0513 128.059 45.0467C127.597 45.0687 127.135 44.9869 126.709 44.8075C126.282 44.628 125.901 44.3553 125.594 44.0095L125.588 44.015ZM119.588 44.6117C120.073 44.8817 120.623 45.0147 121.177 44.9965C121.73 45.0165 122.276 44.8812 122.756 44.6061C123.183 44.3415 123.52 43.9524 123.72 43.4909C123.96 42.8694 124.067 42.2044 124.033 41.5391V38.3605H122.666V41.4331C122.692 41.8852 122.66 42.3387 122.572 42.7826C122.482 43.0473 122.308 43.2748 122.075 43.4295C121.802 43.5977 121.487 43.6868 121.166 43.6868C120.845 43.6868 120.531 43.5977 120.257 43.4295C120.016 43.2642 119.84 43.0195 119.761 42.738C119.674 42.3108 119.64 41.8743 119.661 41.4387V38.3995H118.306V41.5224C118.271 42.2017 118.376 42.8809 118.612 43.5187C118.819 43.974 119.159 44.3553 119.588 44.6117ZM115.807 42.7101C115.986 42.3862 116.077 42.0207 116.069 41.6506C116.079 41.3734 116.031 41.0972 115.93 40.8392C115.828 40.5812 115.674 40.3468 115.478 40.1506C115.29 39.9628 115.065 39.8162 114.818 39.7202C114.57 39.6242 114.305 39.5808 114.04 39.5929C113.683 39.5895 113.332 39.684 113.025 39.8662C112.714 40.0483 112.458 40.3102 112.283 40.6246C112.103 40.9404 112.008 41.2981 112.01 41.6618C112.001 42.0237 112.088 42.3815 112.263 42.6983C112.438 43.0151 112.695 43.2794 113.006 43.4641C113.318 43.6487 113.673 43.747 114.035 43.7488C114.397 43.7506 114.753 43.6557 115.066 43.4741C115.374 43.304 115.629 43.051 115.802 42.7436L115.807 42.7101ZM111.619 44.0429C111.306 43.7223 111.059 43.3418 110.896 42.9241C110.732 42.5065 110.654 42.0601 110.666 41.6116C110.66 41.1703 110.744 40.7325 110.912 40.3243C111.079 39.9161 111.328 39.5459 111.642 39.236C111.945 38.9199 112.31 38.6692 112.713 38.4994C113.117 38.3297 113.551 38.2444 113.989 38.249C114.491 38.2438 114.987 38.3605 115.434 38.5891C115.646 38.7028 115.845 38.8413 116.025 39.0018V38.3995H117.358V47.004H116.019V44.2716C115.825 44.4352 115.612 44.5739 115.384 44.6842C114.942 44.9029 114.454 45.0138 113.962 45.0077C113.525 45.014 113.092 44.9296 112.69 44.7597C112.287 44.5897 111.925 44.3381 111.625 44.0206L111.619 44.0429ZM107.164 43.1451L106.941 42.8942L106.082 43.8701L106.205 44.0541C106.436 44.351 106.734 44.5896 107.075 44.7511C107.423 44.9155 107.804 44.9994 108.19 44.9965C108.46 45.0066 108.73 44.9624 108.982 44.8667C109.235 44.7709 109.466 44.6254 109.662 44.4389C109.854 44.2535 110.006 44.0307 110.109 43.7842C110.212 43.5376 110.263 43.2727 110.259 43.0057C110.263 42.6052 110.138 42.2141 109.902 41.8904C109.559 41.4943 109.135 41.1766 108.658 40.9591C108.355 40.8251 108.079 40.636 107.844 40.4015C107.756 40.305 107.705 40.1806 107.699 40.0502C107.698 39.9841 107.713 39.9187 107.741 39.8589C107.769 39.799 107.81 39.7462 107.861 39.7044C108.195 39.3922 108.731 39.526 109.261 40.039L109.472 40.2509L110.376 39.3197L110.158 39.1133C109.043 37.998 107.738 37.998 106.969 38.7676C106.789 38.9369 106.646 39.1419 106.55 39.3695C106.454 39.5971 106.407 39.8422 106.411 40.0892C106.407 40.4767 106.526 40.8554 106.751 41.171C107.072 41.5588 107.478 41.8662 107.939 42.0689C108.253 42.2056 108.541 42.3941 108.792 42.6265C108.885 42.7333 108.936 42.8698 108.937 43.0113C108.936 43.1008 108.915 43.1889 108.877 43.2697C108.838 43.3506 108.783 43.4222 108.714 43.4797C108.313 43.8422 107.688 43.7585 107.141 43.1395L107.164 43.1451ZM103.539 42.7157C103.718 42.3918 103.809 42.0263 103.801 41.6562C103.812 41.3785 103.766 41.1015 103.665 40.8424C103.564 40.5834 103.411 40.3479 103.216 40.1506C103.028 39.9628 102.803 39.8162 102.555 39.7202C102.307 39.6242 102.042 39.5808 101.777 39.5929C101.42 39.5895 101.069 39.684 100.762 39.8662C100.45 40.0468 100.194 40.309 100.02 40.6246C99.8394 40.9413 99.7442 41.2998 99.7442 41.6646C99.7442 42.0293 99.8394 42.3878 100.02 42.7046C100.149 42.9419 100.324 43.1509 100.536 43.3189C100.747 43.4869 100.99 43.6105 101.251 43.6824C101.511 43.7542 101.783 43.7728 102.051 43.737C102.319 43.7013 102.576 43.6118 102.809 43.4741C103.116 43.3024 103.371 43.0497 103.545 42.7436L103.539 42.7157ZM103.757 38.4218H105.089V44.8571H103.751V44.2994C103.557 44.4631 103.344 44.6018 103.115 44.7121C102.498 45.0093 101.803 45.1051 101.129 44.986C100.455 44.867 99.8347 44.539 99.3567 44.0485C99.0412 43.7277 98.7936 43.3465 98.6288 42.9278C98.464 42.5091 98.3854 42.0614 98.3976 41.6116C98.392 41.1703 98.4756 40.7325 98.6433 40.3243C98.811 39.9161 99.0593 39.5459 99.3735 39.236C99.6792 38.9171 100.048 38.6648 100.455 38.4949C100.863 38.3251 101.302 38.2414 101.743 38.249C102.245 38.2438 102.741 38.3605 103.188 38.5891C103.4 38.7028 103.599 38.8413 103.779 39.0018L103.757 38.4218ZM92.7821 40.5409C92.9551 40.232 93.2123 39.9787 93.5238 39.8104C93.8362 39.6255 94.1924 39.5273 94.5554 39.526C94.9052 39.5288 95.2479 39.6251 95.548 39.8048C95.863 39.9879 96.1215 40.2541 96.2953 40.5744C96.4817 40.8903 96.58 41.2504 96.58 41.6172C96.58 41.984 96.4817 42.3441 96.2953 42.66C96.1258 42.9749 95.8731 43.2373 95.5647 43.4184C95.254 43.5957 94.902 43.688 94.5443 43.686C94.276 43.6931 94.0093 43.6436 93.7614 43.5408C93.5135 43.438 93.2901 43.2842 93.1055 43.0893C92.9109 42.8935 92.7586 42.6599 92.6578 42.4028C92.5571 42.1457 92.5102 41.8708 92.52 41.5949C92.5153 41.2269 92.6056 40.8639 92.7821 40.5409ZM94.6279 38.249C94.137 38.245 93.652 38.3557 93.2115 38.5724C92.9844 38.6828 92.771 38.8194 92.5758 38.9795V36.1355H91.2318V44.8571H92.5758V44.2548C92.7553 44.4159 92.9538 44.5544 93.1669 44.6675C93.611 44.898 94.1053 45.0149 94.6056 45.0077C95.0438 45.0135 95.4785 44.9289 95.8824 44.7591C96.2864 44.5892 96.651 44.3378 96.9533 44.0206C97.576 43.3822 97.9245 42.5257 97.9245 41.6339C97.9245 40.7421 97.576 39.8856 96.9533 39.2472C96.6549 38.9271 96.2929 38.673 95.8905 38.5011C95.4881 38.3292 95.0543 38.2434 94.6168 38.249" fill="black"/>
<path d="M38.9803 47.4C41.0016 46.4346 43.1145 45.6743 45.2873 45.1303C47.6177 44.5257 49.997 44.1283 52.3973 43.9425C54.745 43.7898 57.102 43.8663 59.4348 44.1712L58.2749 46.6917C52.2523 46.2679 46.9863 47.149 42.4768 49.335C44.1436 50.0083 45.8789 50.4982 47.6517 50.796C50.6862 51.3228 53.779 51.426 56.8418 51.1027C59.736 50.8618 62.5761 50.1771 65.2622 49.0729C67.6713 48.0357 69.4557 46.7364 70.5989 45.1694C71.7421 43.6024 72.0488 42.0577 71.5135 40.4907C70.9781 38.9237 69.7234 37.5742 67.727 36.392C65.3752 35.0684 62.8075 34.1716 60.143 33.7432C57.1415 33.1813 54.0749 33.0518 51.0367 33.3584C48.1432 33.6253 45.3084 34.3382 42.6329 35.4719C38.7071 37.156 36.5174 39.2193 36.0638 41.6618C35.6735 43.7641 36.655 45.6712 38.9803 47.3776V47.4ZM36.4988 68.4567C36.4393 70.8769 38.0955 72.942 41.4674 74.6521C43.9419 75.847 46.5967 76.6252 49.3247 76.9552C52.3447 77.3745 55.4091 77.3614 58.4255 76.9162C61.2728 76.5218 64.0373 75.6687 66.6117 74.3901C71.032 72.1595 72.8908 69.44 72.1882 66.2317L77.2851 65.674C78.0286 67.4994 77.7758 69.3303 76.5267 71.1669C75.2943 72.9959 73.1195 74.7023 70.0245 76.2749C65.2511 78.6839 59.7824 79.9182 53.6186 79.9777C47.4547 80.0372 42.1998 78.9683 37.8539 76.7712C34.943 75.2841 32.9689 73.5406 31.9317 71.5405C31.4232 70.6095 31.1736 69.5592 31.209 68.499C31.2443 67.4388 31.5632 66.4074 32.1324 65.5123C32.8629 64.3175 33.8083 63.2681 34.9207 62.4174C33.6797 61.5159 32.6564 60.3479 31.9261 58.999C31.4121 58.0726 31.1555 57.0255 31.1829 55.9664C31.2104 54.9073 31.5209 53.8749 32.0823 52.9764C32.9139 51.6221 34.0147 50.4529 35.3166 49.5413C33.5098 48.3145 32.296 46.9984 31.6752 45.5932C30.9558 43.9202 31.0562 42.1804 31.9596 40.2955L25.7195 42.989L22 40.7751L77.5806 17.1699L81.8299 18.8429L53.8193 30.9159C57.2585 30.8371 60.6954 31.1514 64.0633 31.8528C66.8725 32.4343 69.5704 33.4622 72.0544 34.8975C76.1438 37.3251 77.8799 40.145 77.2628 43.357C76.6457 46.5691 73.8574 49.2439 68.8981 51.3815C63.9834 53.4895 58.34 54.4189 51.9679 54.1698C46.9008 53.9727 42.5549 53.0861 38.9302 51.5098C37.352 52.8537 36.5323 54.298 36.4877 55.8985C36.4869 56.7105 36.6683 57.5123 37.0187 58.2449C37.369 58.9774 37.8793 59.622 38.5119 60.131L38.5844 60.0976C40.7188 59.0353 42.9627 58.2088 45.2762 57.6328C47.6061 57.0272 49.9856 56.6315 52.3862 56.4506C54.7336 56.2931 57.0909 56.3678 59.4237 56.6736L58.2638 59.1998C52.0813 58.7536 46.6907 59.6961 42.092 62.027L41.724 62.2166C44.1251 63.343 46.6912 64.0772 49.3247 64.3914C52.3452 64.8061 55.4092 64.7911 58.4255 64.3468C61.2723 63.9665 64.0376 63.1226 66.6117 61.8486C71.032 59.618 72.8908 56.8967 72.1882 53.6846L77.2851 53.127C78.0286 54.9523 77.7758 56.7814 76.5267 58.6142C75.2943 60.4489 73.1195 62.1497 70.0245 63.7167C65.2511 66.1332 59.7824 67.3693 53.6186 67.425C47.741 67.4808 42.6924 66.5124 38.4729 64.5197C37.9103 65.011 37.4506 65.609 37.1204 66.279C36.7902 66.949 36.596 67.6778 36.549 68.4232" fill="black"/>
<path d="M31.8926 19.8746H35.7014V7.16024H31.8926V19.8746ZM35.746 3.39055C35.9445 3.05222 36.0503 2.66752 36.0527 2.27526C36.0547 1.88239 35.9486 1.49655 35.746 1.15996C35.5532 0.808284 35.2727 0.512446 34.9318 0.301186C34.5943 0.101323 34.2087 -0.00278402 33.8165 5.66139e-05C33.4248 0.000751818 33.0401 0.104611 32.7012 0.301186C32.3516 0.49676 32.0564 0.776631 31.8425 1.11535C31.6398 1.45194 31.5337 1.83778 31.5358 2.23064C31.5332 2.63237 31.6391 3.02733 31.8425 3.37382C32.045 3.71299 32.3286 3.99657 32.6678 4.19914C33.0066 4.39571 33.3913 4.49957 33.7831 4.50027C34.1753 4.50311 34.5609 4.399 34.8984 4.19914C35.2355 3.99776 35.5158 3.7137 35.7125 3.37382L35.746 3.39055ZM48.767 19.8746H52.5758V11.8277C52.5966 10.9047 52.3775 9.992 51.94 9.17892C51.536 8.4377 50.9336 7.82365 50.2002 7.4056C49.4222 6.97054 48.5429 6.74927 47.6517 6.76431C46.817 6.75442 45.9898 6.92366 45.226 7.26062C44.5281 7.56433 43.9027 8.01292 43.3913 8.57666V7.16024H39.577V19.8746H43.3857V12.3519C43.3793 11.885 43.4925 11.4243 43.7148 11.0136C43.9371 10.6223 44.2632 10.3 44.6572 10.0823C45.1079 9.84794 45.6104 9.73095 46.1182 9.74214C46.4799 9.7241 46.8413 9.78285 47.1787 9.91453C47.5161 10.0462 47.8217 10.2478 48.0756 10.5061C48.5719 11.1006 48.8196 11.8637 48.767 12.6363V19.8746ZM69.2327 13.6903V11.8277C69.2535 10.9047 69.0344 9.992 68.597 9.17892C68.1907 8.43749 67.5864 7.82354 66.8515 7.4056C66.0675 6.96542 65.1797 6.74394 64.2808 6.76431C63.4443 6.755 62.6154 6.9242 61.8494 7.26062C61.154 7.56589 60.5308 8.01432 60.0203 8.57666V7.16024H56.2116V19.2277L60.0203 17.605V12.3519C60.0139 11.885 60.1271 11.4243 60.3494 11.0136C60.57 10.621 60.8966 10.2983 61.2918 10.0823C61.7425 9.84794 62.245 9.73095 62.7528 9.74214C63.1138 9.72347 63.4745 9.78195 63.8111 9.91369C64.1476 10.0454 64.4522 10.2474 64.7046 10.5061C65.211 11.0961 65.4671 11.8604 65.4184 12.6363V15.3075L69.2327 13.6903Z" fill="#4B718F"/>
<path d="M147.208 26.0198V22.1162C147.206 21.8336 147.281 21.5558 147.426 21.3129C147.57 21.07 147.779 20.8715 148.028 20.7388C148.317 20.5824 148.642 20.5055 148.971 20.5158C149.199 20.5018 149.427 20.5385 149.639 20.6233C149.851 20.7082 150.042 20.8391 150.197 21.0065C150.512 21.411 150.667 21.9172 150.632 22.4285V26.0198H151.491V22.2668C151.505 21.8091 151.411 21.3546 151.218 20.9396C151.051 20.5882 150.78 20.2964 150.443 20.1031C150.073 19.9048 149.658 19.8068 149.238 19.8187C148.8 19.8041 148.366 19.9041 147.978 20.1087C147.664 20.2759 147.4 20.5243 147.214 20.8281V20.0027H146.355V26.0198H147.208ZM140.305 25.1331C139.942 24.9311 139.642 24.6317 139.44 24.2687C139.232 23.8824 139.123 23.4503 139.123 23.0113C139.123 22.5723 139.232 22.1401 139.44 21.7538C139.642 21.3908 139.942 21.0914 140.305 20.8894C140.693 20.688 141.125 20.5829 141.562 20.5829C142 20.5829 142.431 20.688 142.82 20.8894C143.181 21.0925 143.482 21.3891 143.69 21.7482C143.898 22.1356 144.007 22.5686 144.007 23.0085C144.007 23.4483 143.898 23.8814 143.69 24.2687C143.483 24.6283 143.182 24.9251 142.82 25.1275C142.432 25.3326 142.001 25.4398 141.562 25.4398C141.124 25.4398 140.692 25.3326 140.305 25.1275V25.1331ZM143.26 25.7967C143.751 25.5387 144.163 25.1535 144.454 24.6814C144.681 24.3135 144.831 23.903 144.894 23.4752C144.957 23.0473 144.932 22.6111 144.82 22.1933C144.708 21.7755 144.512 21.3849 144.244 21.0456C143.976 20.7064 143.641 20.4255 143.26 20.2202C142.733 19.9562 142.152 19.8188 141.562 19.8188C140.973 19.8188 140.391 19.9562 139.864 20.2202C139.493 20.4344 139.167 20.7199 138.906 21.0604C138.645 21.4008 138.454 21.7895 138.343 22.204C138.233 22.6185 138.206 23.0508 138.263 23.4759C138.32 23.9011 138.46 24.3108 138.676 24.6814C138.965 25.1547 139.378 25.5403 139.87 25.7967C140.395 26.0645 140.976 26.2041 141.565 26.2041C142.154 26.2041 142.735 26.0645 143.26 25.7967ZM136.596 18.7257C136.678 18.6729 136.747 18.6024 136.797 18.5194C136.851 18.4344 136.878 18.3354 136.875 18.235C136.879 18.1362 136.851 18.0389 136.797 17.9562C136.746 17.8749 136.678 17.8062 136.596 17.7554C136.512 17.7065 136.415 17.6807 136.318 17.6807C136.22 17.6807 136.124 17.7065 136.039 17.7554C135.956 17.8039 135.886 17.8731 135.838 17.9562C135.788 18.0406 135.761 18.1368 135.76 18.235C135.76 18.3351 135.787 18.4333 135.838 18.5194C135.887 18.6037 135.956 18.6746 136.039 18.7257C136.125 18.7749 136.224 18.7999 136.323 18.7982C136.421 18.7989 136.517 18.7739 136.602 18.7257H136.596ZM136.747 20.0027H135.888V26.0198H136.747V20.0027ZM134.137 26.1369C134.304 26.0936 134.464 26.0259 134.611 25.9361L134.394 25.2558C134.216 25.3853 134 25.4538 133.78 25.451C133.672 25.457 133.565 25.4356 133.467 25.3888C133.37 25.342 133.285 25.2713 133.223 25.1833C133.079 24.9556 133.01 24.6882 133.027 24.4193V20.6329H134.528V20.0027H133.027V17.7722H132.174V20.0027H131.561V20.6329H132.174V24.4528C132.145 24.91 132.275 25.3631 132.542 25.7354C132.67 25.8868 132.831 26.0069 133.013 26.0861C133.195 26.1654 133.393 26.2019 133.591 26.1926C133.779 26.1921 133.966 26.1677 134.148 26.1201L134.137 26.1369ZM125.906 25.1498C125.557 24.9406 125.272 24.6398 125.081 24.2799C124.883 23.8863 124.78 23.4519 124.78 23.0113C124.78 22.5706 124.883 22.1362 125.081 21.7426C125.271 21.3838 125.557 21.0846 125.906 20.8783C126.271 20.6699 126.683 20.5603 127.102 20.5603C127.522 20.5603 127.934 20.6699 128.299 20.8783C128.649 21.0848 128.933 21.3865 129.118 21.7482C129.316 22.1417 129.42 22.5762 129.42 23.0168C129.42 23.4574 129.316 23.8919 129.118 24.2855C128.808 24.8267 128.295 25.2225 127.692 25.3856C127.09 25.5487 126.448 25.4659 125.906 25.1554V25.1498ZM128.343 25.8246C128.78 25.5684 129.138 25.1983 129.38 24.7539V26.0253H130.239V20.0027H129.38V21.2575C129.156 20.8126 128.805 20.4441 128.371 20.1979C127.908 19.9436 127.387 19.813 126.858 19.8189C126.33 19.8247 125.812 19.9668 125.354 20.2314C124.906 20.5032 124.537 20.8878 124.284 21.3467C124.019 21.8521 123.885 22.4157 123.893 22.9862C123.879 23.5693 124.017 24.146 124.295 24.6591C124.546 25.1194 124.916 25.5044 125.365 25.7744C125.825 26.0557 126.355 26.2007 126.893 26.1926C127.403 26.1975 127.905 26.0625 128.343 25.8023V25.8246ZM120.436 26.003L123.363 19.986H122.376L120.146 24.7818L117.949 19.986H116.945L119.867 26.003H120.436ZM111.831 25.1164C111.468 24.9135 111.167 24.6145 110.961 24.252C110.753 23.8656 110.644 23.4335 110.644 22.9945C110.644 22.5555 110.753 22.1234 110.961 21.737C111.168 21.3759 111.469 21.0773 111.831 20.8727C112.22 20.6713 112.651 20.5661 113.089 20.5661C113.526 20.5661 113.958 20.6713 114.346 20.8727C114.71 21.0804 115.011 21.383 115.216 21.7482C115.421 22.1366 115.529 22.5692 115.529 23.0085C115.529 23.4477 115.421 23.8803 115.216 24.2687C115.009 24.6283 114.709 24.9251 114.346 25.1275C113.959 25.3326 113.527 25.4398 113.089 25.4398C112.65 25.4398 112.219 25.3326 111.831 25.1275V25.1164ZM114.781 25.7967C115.273 25.5403 115.686 25.1547 115.975 24.6814C116.202 24.3135 116.352 23.903 116.415 23.4752C116.478 23.0473 116.453 22.6111 116.341 22.1933C116.229 21.7755 116.033 21.3849 115.765 21.0456C115.497 20.7064 115.162 20.4255 114.781 20.2202C114.255 19.9563 113.675 19.8189 113.086 19.8189C112.497 19.8189 111.917 19.9563 111.391 20.2202C111.018 20.4334 110.691 20.7183 110.429 21.0585C110.167 21.3987 109.975 21.7873 109.864 22.2021C109.753 22.6169 109.726 23.0495 109.783 23.4751C109.84 23.9006 109.981 24.3106 110.197 24.6814C110.488 25.1535 110.9 25.5387 111.391 25.7967C111.916 26.0645 112.497 26.2041 113.086 26.2041C113.675 26.2041 114.256 26.0645 114.781 25.7967ZM104.242 26.0142V22.462C104.238 22.2401 104.291 22.021 104.398 21.8263C104.501 21.6398 104.656 21.4869 104.844 21.3857C105.057 21.2742 105.295 21.2186 105.535 21.224C105.707 21.2158 105.878 21.2438 106.037 21.3063C106.197 21.3687 106.341 21.4642 106.461 21.5865C106.698 21.8676 106.818 22.2289 106.796 22.5958V26.0198H108.603V22.211C108.612 21.7756 108.508 21.3451 108.301 20.9619C108.111 20.6095 107.825 20.3178 107.476 20.1199C107.103 19.9136 106.681 19.8097 106.255 19.8187C105.852 19.8191 105.455 19.9066 105.089 20.0752C104.761 20.2184 104.466 20.4293 104.225 20.6942V20.0251H102.424V26.0198L104.242 26.0142ZM96.6633 26.0142V22.462C96.6592 22.2401 96.7131 22.021 96.8195 21.8263C96.9251 21.6414 97.0794 21.4891 97.2656 21.3857C97.4787 21.2742 97.7166 21.2186 97.9571 21.224C98.1282 21.2158 98.2991 21.2438 98.4587 21.3063C98.6182 21.3687 98.7627 21.4642 98.8828 21.5865C99.1196 21.8676 99.2394 22.2289 99.2173 22.5958V26.0198H101.024V22.211C101.034 21.7756 100.93 21.3451 100.723 20.9619C100.532 20.6095 100.246 20.3178 99.8977 20.1199C99.5242 19.9136 99.1029 19.8097 98.6764 19.8187C98.283 19.8137 97.8931 19.8936 97.5332 20.0529C97.2031 20.196 96.9067 20.4069 96.6633 20.6719V20.0027H94.8621V26.0198L96.6633 26.0142ZM92.955 18.6031C93.1159 18.5098 93.2488 18.375 93.3397 18.2127C93.4412 18.0449 93.4916 17.8511 93.4847 17.6551C93.4926 17.4589 93.4421 17.2649 93.3397 17.0974C93.244 16.9403 93.1121 16.8084 92.955 16.7126C92.7947 16.6179 92.6113 16.5697 92.4252 16.5732C92.23 16.5674 92.037 16.6157 91.8676 16.7126C91.7101 16.8098 91.5766 16.9414 91.4772 17.0974C91.3775 17.266 91.3272 17.4592 91.3322 17.6551C91.3281 17.8508 91.3783 18.0438 91.4772 18.2127C91.5726 18.3735 91.7068 18.5077 91.8676 18.6031C92.0365 18.702 92.2295 18.7522 92.4252 18.748C92.6118 18.7496 92.7952 18.6994 92.955 18.6031ZM93.323 19.9972H91.5162V26.0198H93.323V19.9972Z" fill="#4B718F"/>
<path d="M109.629 14.2813C109.961 14.1742 110.272 14.01 110.549 13.7961L110.192 13.2385C109.976 13.4061 109.733 13.5344 109.472 13.6177C109.193 13.7056 108.901 13.7489 108.608 13.7459C108.156 13.7555 107.71 13.6459 107.314 13.4281C106.945 13.2187 106.64 12.912 106.433 12.5414C106.218 12.1566 106.109 11.7219 106.115 11.2811C106.112 10.8468 106.22 10.4188 106.428 10.0376C106.632 9.65433 106.942 9.33715 107.32 9.12305C107.774 8.8842 108.284 8.77501 108.796 8.80748C109.307 8.83995 109.8 9.01281 110.22 9.30707L110.571 8.74942C110.296 8.53336 109.984 8.36898 109.651 8.26427C109.291 8.1466 108.914 8.08638 108.536 8.08582C108.095 8.08007 107.657 8.16156 107.247 8.32561C106.863 8.47605 106.512 8.70141 106.215 8.9886C105.918 9.27579 105.682 9.61909 105.519 9.99855C105.354 10.398 105.27 10.8266 105.273 11.2588C105.269 11.6953 105.355 12.128 105.524 12.5303C105.682 12.912 105.913 13.2588 106.205 13.5508C106.502 13.8417 106.854 14.0693 107.242 14.2199C107.646 14.3818 108.078 14.4633 108.513 14.4597C108.892 14.46 109.269 14.3998 109.629 14.2813ZM103.494 14.2813C103.829 14.1741 104.142 14.01 104.42 13.7961L104.058 13.2385C103.842 13.4061 103.599 13.5344 103.338 13.6177C103.059 13.7062 102.767 13.7495 102.474 13.7459C102.022 13.7539 101.577 13.6444 101.18 13.4281C100.812 13.2171 100.508 12.9108 100.299 12.5414C100.084 12.1566 99.9745 11.7219 99.9813 11.2811C99.9761 10.843 100.084 10.411 100.294 10.0264C100.499 9.64655 100.809 9.33316 101.186 9.12305C101.639 8.8853 102.148 8.77672 102.659 8.80918C103.169 8.84163 103.661 9.01388 104.08 9.30707L104.437 8.74942C104.159 8.5344 103.846 8.37015 103.511 8.26427C103.151 8.14615 102.775 8.08592 102.396 8.08582C101.955 8.08007 101.517 8.16156 101.108 8.32561C100.723 8.47542 100.37 8.69894 100.071 8.98363C99.775 9.27371 99.5416 9.62093 99.3846 10.0041C99.215 10.4024 99.1296 10.8315 99.1337 11.2644C99.1286 11.7016 99.216 12.1349 99.3902 12.5358C99.5497 12.9147 99.7807 13.2593 100.071 13.5508C100.368 13.8405 100.721 14.068 101.108 14.2199C101.512 14.3818 101.944 14.4633 102.379 14.4597C102.758 14.4605 103.135 14.4002 103.494 14.2813ZM93.6632 13.3835C93.3099 13.1812 93.0187 12.8862 92.8211 12.5303C92.6179 12.1418 92.5162 11.7083 92.5256 11.27C92.5177 10.8283 92.6192 10.3915 92.8211 9.99855C93.0117 9.63868 93.2971 9.33783 93.6465 9.12862C93.9121 8.96558 94.2082 8.85856 94.5167 8.81414C94.8251 8.76972 95.1394 8.78883 95.4402 8.8703C95.7411 8.95177 96.022 9.09388 96.2659 9.2879C96.5098 9.48192 96.7115 9.72376 96.8585 9.99855C97.0648 10.3901 97.1684 10.8275 97.1596 11.27C97.1664 11.708 97.0649 12.1409 96.8641 12.5303C96.5487 13.0635 96.0366 13.4516 95.438 13.6111C94.8394 13.7707 94.2021 13.6889 93.6632 13.3835ZM96.602 14.0303C97.0492 13.7573 97.4181 13.373 97.6727 12.915C97.9462 12.4007 98.0825 11.8245 98.0686 11.2421C98.0805 10.6713 97.9461 10.1069 97.6782 9.60262C97.4249 9.1437 97.0558 8.75917 96.6076 8.48733C96.142 8.20606 95.6068 8.06115 95.0629 8.06909C94.5499 8.06188 94.0447 8.19492 93.6018 8.45387C93.1694 8.70234 92.8157 9.06761 92.5813 9.50782V4.17114H91.7058V14.2701H92.5646V13.0043C92.8114 13.4471 93.1713 13.8166 93.6074 14.0749C94.0481 14.3342 94.5516 14.4673 95.0629 14.4597C95.5988 14.4664 96.126 14.3235 96.5853 14.0471" fill="#4B718F"/>
</g>
<defs>
<clipPath id="clip0_1078_8693">
<rect width="129.486" height="80" fill="white" transform="translate(22)"/>
</clipPath>
</defs>
</svg>
