<svg width="12" height="12" viewBox="0 0 12 12" fill="none" xmlns="http://www.w3.org/2000/svg" id="accesos">
<path fill-rule="evenodd" clip-rule="evenodd" d="M6 1.27778C3.42267 1.27778 1.33333 3.28006 1.33333 5.75L1.33333 17.25C1.33333 19.7199 3.42267 21.7222 6 21.7222H18C20.5773 21.7222 22.6667 19.7199 22.6667 17.25V13.5C22.6667 13.1472 22.9651 12.8611 23.3333 12.8611C23.7015 12.8611 24 13.1472 24 13.5V17.25C24 20.4256 21.3137 23 18 23H6C2.68629 23 0 20.4256 0 17.25L0 5.75C0 2.57436 2.68629 0 6 0L10 0C10.3682 0 10.6667 0.28604 10.6667 0.638889C10.6667 0.991737 10.3682 1.27778 10 1.27778H6Z" fill="#26201B"/>
</svg>
