<svg width="24" height="24" viewBox="0 0 24 24" fill="none" xmlns="http://www.w3.org/2000/svg" id="accordion-open">
<path fill-rule="evenodd" clip-rule="evenodd" d="M0.879333 11.7121C0.879333 11.2023 1.3033 10.7891 1.82628 10.7891H24.5531C25.076 10.7891 25.5 11.2023 25.5 11.7121C25.5 12.2219 25.076 12.6352 24.5531 12.6352H1.82628C1.3033 12.6352 0.879333 12.2219 0.879333 11.7121Z" fill="#26201B"/>
<path fill-rule="evenodd" clip-rule="evenodd" d="M13.1897 24.6207C12.6799 24.6207 12.2666 24.1967 12.2666 23.6737L12.2666 0.946955C12.2666 0.423968 12.6799 6.06161e-06 13.1897 6.03932e-06C13.6995 6.01704e-06 14.1128 0.423968 14.1128 0.946955L14.1128 23.6737C14.1128 24.1967 13.6995 24.6207 13.1897 24.6207Z" fill="#26201B"/>
</svg>
