<svg width="17" height="17" viewBox="0 0 17 17" xmlns="http://www.w3.org/2000/svg" id="bullet">
<path fill-rule="evenodd" clip-rule="evenodd" d="M8.46943 2C4.8799 2 2 4.85489 2 8.3399C2 11.8249 4.8799 14.6798 8.46943 14.6798C12.059 14.6798 14.9389 11.8249 14.9389 8.3399C14.9389 4.85489 12.059 2 8.46943 2ZM0 8.3399C0 3.71748 3.80846 0 8.46943 0C13.1304 0 16.9389 3.71748 16.9389 8.3399C16.9389 12.9623 13.1304 16.6798 8.46943 16.6798C3.80846 16.6798 0 12.9623 0 8.3399Z" />
<path d="M12.9511 8.33985C12.9511 10.7721 10.9446 12.7438 8.46945 12.7438C5.9943 12.7438 3.98779 10.7721 3.98779 8.33985C3.98779 5.90762 5.9943 3.93591 8.46945 3.93591C10.9446 3.93591 12.9511 5.90762 12.9511 8.33985Z" />
</svg>
