<svg width="24px" height="25px" viewBox="0 0 35 38" xmlns="http://www.w3.org/2000/svg" id="calendar">
<path class="svg__icon" fill-rule="evenodd" clip-rule="evenodd" d="M6.13333 0.25C6.57516 0.25 6.93333 0.608172 6.93333 1.05V2.38333H16V1.05C16 0.608172 16.3582 0.25 16.8 0.25C17.2418 0.25 17.6 0.608172 17.6 1.05V2.38333H18.9333C21.1425 2.38333 22.9333 4.17419 22.9333 6.38333V20.25C22.9333 22.4591 21.1425 24.25 18.9333 24.25H4C1.79086 24.25 0 22.4591 0 20.25V6.38333C0 4.17419 1.79086 2.38333 4 2.38333H5.33333V1.05C5.33333 0.608172 5.69151 0.25 6.13333 0.25ZM4 3.98333C2.67452 3.98333 1.6 5.05785 1.6 6.38333V7.71667H21.3333V6.38333C21.3333 5.05785 20.2588 3.98333 18.9333 3.98333H4ZM21.3333 9.31667H1.6V20.25C1.6 21.5755 2.67452 22.65 4 22.65H18.9333C20.2588 22.65 21.3333 21.5755 21.3333 20.25V9.31667ZM5.86667 13.85C5.86667 13.4082 6.22484 13.05 6.66667 13.05H8.8C9.24183 13.05 9.6 13.4082 9.6 13.85C9.6 14.2918 9.24183 14.65 8.8 14.65H6.66667C6.22484 14.65 5.86667 14.2918 5.86667 13.85ZM13.3333 13.85C13.3333 13.4082 13.6915 13.05 14.1333 13.05H16.2667C16.7085 13.05 17.0667 13.4082 17.0667 13.85C17.0667 14.2918 16.7085 14.65 16.2667 14.65H14.1333C13.6915 14.65 13.3333 14.2918 13.3333 13.85ZM5.86667 18.1167C5.86667 17.6748 6.22484 17.3167 6.66667 17.3167H8.8C9.24183 17.3167 9.6 17.6748 9.6 18.1167C9.6 18.5585 9.24183 18.9167 8.8 18.9167H6.66667C6.22484 18.9167 5.86667 18.5585 5.86667 18.1167ZM13.3333 18.1167C13.3333 17.6748 13.6915 17.3167 14.1333 17.3167H16.2667C16.7085 17.3167 17.0667 17.6748 17.0667 18.1167C17.0667 18.5585 16.7085 18.9167 16.2667 18.9167H14.1333C13.6915 18.9167 13.3333 18.5585 13.3333 18.1167Z" fill=""/>
</svg>
