<svg width="16" height="17" viewBox="0 0 16 17" xmlns="http://www.w3.org/2000/svg" id="calen">
<path fill-rule="evenodd" clip-rule="evenodd" d="M4.08889 0.166748C4.38344 0.166748 4.62222 0.40553 4.62222 0.700081V1.58897H10.6667V0.700081C10.6667 0.40553 10.9054 0.166748 11.2 0.166748C11.4946 0.166748 11.7333 0.40553 11.7333 0.700081V1.58897H12.6222C14.095 1.58897 15.2889 2.78288 15.2889 4.25564V13.5001C15.2889 14.9728 14.095 16.1667 12.6222 16.1667H2.66667C1.19391 16.1667 0 14.9728 0 13.5001V4.25564C0 2.78288 1.19391 1.58897 2.66667 1.58897H3.55556V0.700081C3.55556 0.40553 3.79434 0.166748 4.08889 0.166748ZM2.66667 2.65564C1.78301 2.65564 1.06667 3.37198 1.06667 4.25564V5.14453H14.2222V4.25564C14.2222 3.37198 13.5059 2.65564 12.6222 2.65564H2.66667ZM14.2222 6.21119H1.06667V13.5001C1.06667 14.3837 1.78301 15.1001 2.66667 15.1001H12.6222C13.5059 15.1001 14.2222 14.3837 14.2222 13.5001V6.21119ZM3.91111 9.23342C3.91111 8.93886 4.14989 8.70008 4.44444 8.70008H5.86667C6.16122 8.70008 6.4 8.93886 6.4 9.23342C6.4 9.52797 6.16122 9.76675 5.86667 9.76675H4.44444C4.14989 9.76675 3.91111 9.52797 3.91111 9.23342ZM8.88889 9.23342C8.88889 8.93886 9.12767 8.70008 9.42222 8.70008H10.8444C11.139 8.70008 11.3778 8.93886 11.3778 9.23342C11.3778 9.52797 11.139 9.76675 10.8444 9.76675H9.42222C9.12767 9.76675 8.88889 9.52797 8.88889 9.23342ZM3.91111 12.0779C3.91111 11.7833 4.14989 11.5445 4.44444 11.5445H5.86667C6.16122 11.5445 6.4 11.7833 6.4 12.0779C6.4 12.3724 6.16122 12.6112 5.86667 12.6112H4.44444C4.14989 12.6112 3.91111 12.3724 3.91111 12.0779ZM8.88889 12.0779C8.88889 11.7833 9.12767 11.5445 9.42222 11.5445H10.8444C11.139 11.5445 11.3778 11.7833 11.3778 12.0779C11.3778 12.3724 11.139 12.6112 10.8444 12.6112H9.42222C9.12767 12.6112 8.88889 12.3724 8.88889 12.0779Z" fill="#26201B"/>
</svg>
