<svg width="16" height="16" viewBox="0 0 16 16" fill="none" xmlns="http://www.w3.org/2000/svg" id="cash-money">
<path d="M11.3333 5.99992V4.66659C11.3333 3.93021 10.7364 3.33325 10 3.33325H2C1.26362 3.33325 0.666664 3.93021 0.666664 4.66659V8.66659C0.666664 9.40297 1.26362 9.99992 2 9.99992H4.57143M6 12.6666H14C14.7364 12.6666 15.3333 12.0696 15.3333 11.3333V7.33325C15.3333 6.59687 14.7364 5.99992 14 5.99992H6C5.26362 5.99992 4.66666 6.59687 4.66666 7.33325V11.3333C4.66666 12.0696 5.26362 12.6666 6 12.6666ZM11.3333 9.33325C11.3333 10.0696 10.7364 10.6666 10 10.6666C9.26362 10.6666 8.66666 10.0696 8.66666 9.33325C8.66666 8.59687 9.26362 7.99992 10 7.99992C10.7364 7.99992 11.3333 8.59687 11.3333 9.33325Z" stroke="black"/>
</svg>
