<svg width="24" height="24" viewBox="0 0 24 24" fill="none" xmlns="http://www.w3.org/2000/svg" id="compartir">
<path fill-rule="evenodd" clip-rule="evenodd" d="M18.7903 13.3701C21.3847 13.3701 23.4878 15.4732 23.4878 18.0676C23.4878 20.662 21.3847 22.7651 18.7903 22.7651C16.1959 22.7651 14.0928 20.662 14.0928 18.0676C14.0928 15.4732 16.1959 13.3701 18.7903 13.3701Z" fill="#26201B"/>
<path fill-rule="evenodd" clip-rule="evenodd" d="M18.7903 0.64765C21.3847 0.64765 23.4878 2.75081 23.4878 5.34519C23.4878 7.93957 21.3847 10.0427 18.7903 10.0427C16.1959 10.0427 14.0928 7.93957 14.0928 5.34519C14.0928 2.75081 16.1959 0.64765 18.7903 0.64765Z" fill="#26201B"/>
<path d="M4.69754 6.32368C7.29191 6.32368 9.39507 8.42683 9.39507 11.0212C9.39507 13.6156 7.29191 15.7188 4.69754 15.7188C2.10316 15.7188 0 13.6156 0 11.0212C0 8.42683 2.10316 6.32368 4.69754 6.32368Z" fill="#26201B"/>
<path fill-rule="evenodd" clip-rule="evenodd" d="M15.2667 15.7188L8.22042 12.1956L7.43262 13.7712L14.4789 17.2944L15.2667 15.7188Z" fill="#26201B"/>
<path fill-rule="evenodd" clip-rule="evenodd" d="M15.5688 5.87269L7.82951 9.41985L8.56348 11.0212L16.3028 7.47408L15.5688 5.87269Z" fill="#26201B"/>
</svg>
