<svg width="16" height="21" viewBox="0 0 16 21" fill="none" xmlns="http://www.w3.org/2000/svg" id="descargar">
<path fill-rule="evenodd" clip-rule="evenodd" d="M2.16663 8.33334C2.44277 8.33334 2.66663 8.5572 2.66663 8.83334V12.1667C2.66663 13.7315 3.93515 15 5.49996 15H10.1666C11.7314 15 13 13.7315 13 12.1667V8.83334C13 8.5572 13.2238 8.33334 13.5 8.33334C13.7761 8.33334 14 8.5572 14 8.83334V12.1667C14 14.2838 12.2837 16 10.1666 16H5.49996C3.38287 16 1.66663 14.2838 1.66663 12.1667V8.83334C1.66663 8.5572 1.89048 8.33334 2.16663 8.33334Z" fill="#B36206"/>
<path fill-rule="evenodd" clip-rule="evenodd" d="M2.16664 8.26666C2.4796 8.26666 2.73331 8.52037 2.73331 8.83333V12.1667C2.73331 13.6947 3.97199 14.9333 5.49998 14.9333H10.1666C11.6946 14.9333 12.9333 13.6947 12.9333 12.1667V8.83333C12.9333 8.52037 13.187 8.26666 13.5 8.26666C13.8129 8.26666 14.0666 8.52037 14.0666 8.83333V12.1667C14.0666 14.3206 12.3206 16.0667 10.1666 16.0667H5.49998C3.34606 16.0667 1.59998 14.3206 1.59998 12.1667V8.83333C1.59998 8.52037 1.85368 8.26666 2.16664 8.26666ZM2.66664 8.83333C2.66664 8.55719 2.44278 8.33333 2.16664 8.33333C1.8905 8.33333 1.66664 8.55719 1.66664 8.83333V12.1667C1.66664 14.2838 3.38288 16 5.49998 16H10.1666C12.2837 16 14 14.2838 14 12.1667V8.83333C14 8.55719 13.7761 8.33333 13.5 8.33333C13.2238 8.33333 13 8.55719 13 8.83333V12.1667C13 13.7315 11.7314 15 10.1666 15H5.49998C3.93517 15 2.66664 13.7315 2.66664 12.1667V8.83333Z" fill="#B36206"/>
<path fill-rule="evenodd" clip-rule="evenodd" d="M7.92651 10.5997C7.79332 10.5997 7.66564 10.5466 7.57178 10.4521L4.13183 6.98913C3.93722 6.79322 3.93828 6.47664 4.13419 6.28203C4.3301 6.08742 4.64668 6.08848 4.84129 6.28439L7.42703 8.88743L7.42703 2.16667C7.42703 1.89053 7.65088 1.66667 7.92703 1.66667C8.20317 1.66667 8.42703 1.89053 8.42703 2.16667L8.42703 8.88639L11.0117 6.28439C11.2063 6.08848 11.5229 6.08742 11.7188 6.28203C11.9147 6.47664 11.9158 6.79322 11.7212 6.98913L8.28124 10.4521C8.18738 10.5466 8.0597 10.5997 7.92651 10.5997Z" fill="#B36206"/>
<path fill-rule="evenodd" clip-rule="evenodd" d="M7.92662 10.6664C7.77567 10.6664 7.63096 10.6062 7.52459 10.4991L4.08464 7.03613C3.86408 6.8141 3.86528 6.45531 4.08731 6.23475C4.30935 6.01419 4.66814 6.01539 4.8887 6.23742L7.36047 8.72573L7.36047 2.16669C7.36047 1.85372 7.61417 1.60002 7.92713 1.60002C8.24009 1.60002 8.4938 1.85372 8.4938 2.16669L8.4938 8.72469L10.9645 6.23742C11.1851 6.01539 11.5439 6.01419 11.7659 6.23475C11.988 6.45531 11.9891 6.8141 11.7686 7.03613L8.32864 10.4991C8.22227 10.6062 8.07756 10.6664 7.92662 10.6664ZM11.0118 6.2844C11.2064 6.08849 11.523 6.08744 11.7189 6.28205C11.9148 6.47666 11.9159 6.79324 11.7213 6.98915L8.28135 10.4521C8.18748 10.5466 8.0598 10.5997 7.92662 10.5997C7.79343 10.5997 7.66575 10.5466 7.57188 10.4521L4.13194 6.98915C3.93733 6.79324 3.93839 6.47666 4.1343 6.28205C4.33021 6.08744 4.64679 6.08849 4.8414 6.2844L7.42713 8.88744L7.42713 2.16669C7.42713 1.89054 7.65099 1.66669 7.92713 1.66669C8.20328 1.66669 8.42713 1.89054 8.42713 2.16669L8.42713 8.8864L11.0118 6.2844Z" fill="#B36206"/>
</svg>
