<svg width="24" height="25" viewBox="0 0 24 25" fill="none" xmlns="http://www.w3.org/2000/svg" id="e-mail">
<path fill-rule="evenodd" clip-rule="evenodd" d="M21.4794 3.78906C21.5537 3.78906 21.6258 3.79433 21.6955 3.80443C22.9914 3.94572 24 5.04373 24 6.3773V18.6126C24 20.042 22.8412 21.2008 21.4118 21.2008H2.58823C1.15879 21.2008 0 20.042 0 18.6126V6.3773C0 5.04373 1.00856 3.94573 2.30453 3.80443C2.37419 3.79433 2.44626 3.78906 2.52057 3.78906H21.4794ZM1.44164 6.11271C1.42209 6.19776 1.41176 6.28632 1.41176 6.3773V18.6126C1.41176 19.2623 1.93849 19.7891 2.58823 19.7891H21.4118C22.0615 19.7891 22.5882 19.2623 22.5882 18.6126V6.3773C22.5882 6.28632 22.5779 6.19775 22.5584 6.11271C22.5202 6.15709 22.4786 6.20011 22.4334 6.24152L14.3849 13.6193C13.0355 14.8562 10.9645 14.8562 9.61509 13.6193L1.5666 6.24152C1.52144 6.20011 1.47981 6.1571 1.44164 6.11271ZM21.4118 5.20083C21.4338 5.20083 21.4557 5.20143 21.4775 5.20263L13.4309 12.5786C12.6213 13.3208 11.3787 13.3208 10.5691 12.5786L2.52253 5.20263C2.54428 5.20143 2.56619 5.20083 2.58824 5.20083H21.4118Z" fill="#26201B"/>
</svg>
