<svg width="47" height="47" viewBox="0 0 47 47" fill="none" xmlns="http://www.w3.org/2000/svg">
<circle cx="23.5" cy="23.5" r="22.5" fill="#FCFCFC" stroke="#3D3838" stroke-width="0.5"/>
<path d="M22 16.5C22 15.6716 22.6719 15 23.5 15H32.5C33.3281 15 34 15.6716 34 16.5V29.5C34 30.3281 33.3281 31 32.5 31H25.9156C25.9688 30.8156 26 30.675 26 30.5V22.9156C26.5813 22.7094 27 22.1531 27 21.5V20.5C27 19.6719 26.3281 19 25.5 19H22V16.5ZM31.8531 25.8531C32.05 25.6594 32.05 25.3406 31.8531 25.1469L29.8531 23.1469C29.6594 22.95 29.3406 22.95 29.1469 23.1469L27.1469 25.1469C26.95 25.3406 26.95 25.6594 27.1469 25.8531C27.3406 26.05 27.6594 26.05 27.8531 25.8531L29 24.7063V28.5C29 28.775 29.225 29 29.5 29C29.775 29 30 28.775 30 28.5V24.7063L31.1469 25.8531C31.3406 26.05 31.6594 26.05 31.8531 25.8531ZM14 20.5C14 20.225 14.2239 20 14.5 20H25.5C25.775 20 26 20.225 26 20.5V21.5C26 21.775 25.775 22 25.5 22H14.5C14.2239 22 14 21.775 14 21.5V20.5ZM25 30C25 30.5531 24.5531 31 24 31H16C15.4478 31 15 30.5531 15 30V23H25V30ZM18.5 25C18.225 25 18 25.225 18 25.5C18 25.775 18.225 26 18.5 26H21.5C21.775 26 22 25.775 22 25.5C22 25.225 21.775 25 21.5 25H18.5Z" fill="#3D3838"/>
</svg>
