<svg width="47" height="47" viewBox="0 0 47 47" fill="none" xmlns="http://www.w3.org/2000/svg">
<circle cx="23.5" cy="23.5" r="22.5" fill="#FCFCFC" stroke="#3D3838" stroke-width="0.5"/>
<path d="M33.6328 20.1328L31.8652 18.3652C31.6328 18.1328 31.3164 18 30.9844 18H29V16.125C29 15.0898 28.1602 14.25 27.125 14.25H20.875C19.8398 14.25 19 15.0898 19 16.125V18H17.0176C16.6855 18 16.3684 18.1318 16.134 18.3662L14.3662 20.1328C14.1318 20.3672 14 20.6875 14 21.0195V24.875H19V23.625C19 23.2773 19.2773 23 19.625 23H20.875C21.2227 23 21.5 23.2773 21.5 23.625V24.875H26.5V23.625C26.5 23.2773 26.7773 23 27.125 23H28.375C28.7227 23 29 23.2773 29 23.625V24.875H34V21.0195C34 20.6875 33.8672 20.3672 33.6328 20.1328ZM27.125 18H20.875V16.125H27.125V18ZM29 27.375C29 27.7217 28.7217 28 28.375 28H27.125C26.7783 28 26.5 27.7217 26.5 27.375V26.125H21.5V27.375C21.5 27.7227 21.2227 28 20.875 28H19.625C19.2773 28 19 27.7227 19 27.375V26.125H14V30.5C14 31.1883 14.5617 31.75 15.25 31.75H32.75C33.4383 31.75 34 31.1883 34 30.5V26.125H29V27.375Z" fill="#3D3838"/>
</svg>
