<svg width="47" height="47" viewBox="0 0 47 47" fill="none" xmlns="http://www.w3.org/2000/svg">
<circle cx="23.5" cy="23.5" r="22.5" fill="#FCFCFC" stroke="#3D3838" stroke-width="0.5"/>
<path d="M34 17.125C34 17.8285 33.4414 18.4766 32.5 19C31.3633 19.6289 29.6719 20.0742 27.7227 20.207C27.582 20.1406 27.4336 20.0742 27.2852 20.0117C25.7422 19.3672 23.6953 19 21.5 19C21.1758 19 20.8594 19.0078 20.543 19.0234L20.5 19C19.5586 18.4766 19 17.8285 19 17.125C19 15.3992 22.3242 14 26.5 14C30.6406 14 34 15.3992 34 17.125ZM20.2773 20.293C20.6758 20.2656 21.082 20.25 21.5 20.25C23.9297 20.25 26.0859 20.7305 27.457 21.4766C28.4258 22.0039 29 22.6602 29 23.375C29 23.4961 28.9727 23.6836 28.918 23.832C28.7383 24.3477 28.2227 24.8203 27.5508 25.2227C27.5469 25.2227 27.5391 25.2266 27.5352 25.2305C27.5234 25.2383 27.5117 25.2422 27.5 25.25C26.1328 26.0078 23.9531 26.5 21.5 26.5C19.1719 26.5 17.0883 26.0586 15.7125 25.3633C15.6395 25.3242 15.5684 25.2539 15.4996 25.25C14.5578 24.7266 14 24.0781 14 23.375C14 22.0156 16.0871 20.8555 19 20.4297C19.4102 20.3672 19.8359 20.3203 20.2773 20.293ZM29.3086 21.2891C30.4141 21.1172 31.4258 20.8438 32.2852 20.4883C32.9219 20.2227 33.5117 19.8945 34 19.4922V20.875C34 21.6289 33.3555 22.3242 32.2891 22.8633C31.7148 23.1523 31.0234 23.3945 30.2422 23.582C30.2461 23.5156 30.25 23.4453 30.25 23.375C30.25 22.5195 29.8359 21.8164 29.3086 21.2891ZM29 27.125C29 27.8281 28.4414 28.4766 27.5 29C27.4297 29.0039 27.3594 29.0742 27.2891 29.1133C25.9102 29.8086 23.8281 30.25 21.5 30.25C19.0469 30.25 16.868 29.7578 15.4996 29C14.5578 28.4766 14 27.8281 14 27.125V25.7422C14.4863 26.1445 15.0789 26.4727 15.716 26.7383C17.2594 27.3828 19.3047 27.75 21.5 27.75C23.6953 27.75 25.7422 27.3828 27.2852 26.7383C27.5898 26.6133 27.8828 26.4688 28.1602 26.3125C28.3984 26.1797 28.6211 26.0312 28.832 25.875C28.8906 25.832 28.9453 25.7852 29 25.7422V27.125ZM30.25 24.8633C30.957 24.668 31.6758 24.4922 32.2852 24.2383C32.9219 23.9727 33.5117 23.6445 34 23.2422V24.625C34 25.0352 33.8047 25.4453 33.418 25.832C32.7812 26.4688 31.6602 26.9922 30.2422 27.332C30.2461 27.2656 30.25 27.1953 30.25 27.125V24.8633ZM21.5 31.5C23.6953 31.5 25.7422 31.1328 27.2852 30.4883C27.9219 30.2227 28.5117 29.8945 29 29.4922V30.875C29 32.6016 25.6406 34 21.5 34C17.3578 34 14 32.6016 14 30.875V29.4922C14.4863 29.8945 15.0789 30.2227 15.716 30.4883C17.2594 31.1328 19.3047 31.5 21.5 31.5Z" fill="#3D3838"/>
</svg>
