<svg width="16" height="16" viewBox="0 0 16 16" xmlns="http://www.w3.org/2000/svg" id="location">
<path fill-rule="evenodd" clip-rule="evenodd" d="M7.83333 1C4.42757 1 1.66666 3.76091 1.66666 7.16667C1.66666 7.77745 1.88629 8.46879 2.28038 9.2078C2.67223 9.94262 3.21915 10.6922 3.83125 11.4105C5.05559 12.8471 6.50185 14.1134 7.37184 14.829C7.64385 15.0527 8.02281 15.0527 8.29482 14.829C9.16481 14.1134 10.6111 12.8471 11.8354 11.4105C12.4475 10.6922 12.9944 9.94262 13.3863 9.2078C13.7804 8.46879 14 7.77745 14 7.16667C14 3.76091 11.2391 1 7.83333 1ZM0.666664 7.16667C0.666664 3.20863 3.87529 0 7.83333 0C11.7914 0 15 3.20863 15 7.16667C15 8.00456 14.7036 8.86273 14.2687 9.67834C13.8315 10.4981 13.2364 11.3082 12.5965 12.0591C11.3169 13.5606 9.8194 14.8698 8.93005 15.6013C8.28895 16.1286 7.37771 16.1286 6.73661 15.6013C5.84726 14.8698 4.34974 13.5606 3.07014 12.0591C2.43026 11.3082 1.83517 10.4981 1.398 9.67834C0.963067 8.86273 0.666664 8.00456 0.666664 7.16667ZM7.83333 5.66667C7.0049 5.66667 6.33333 6.33824 6.33333 7.16667C6.33333 7.99509 7.0049 8.66667 7.83333 8.66667C8.66176 8.66667 9.33333 7.99509 9.33333 7.16667C9.33333 6.33824 8.66176 5.66667 7.83333 5.66667ZM5.33333 7.16667C5.33333 5.78595 6.45262 4.66667 7.83333 4.66667C9.21404 4.66667 10.3333 5.78595 10.3333 7.16667C10.3333 8.54738 9.21404 9.66667 7.83333 9.66667C6.45262 9.66667 5.33333 8.54738 5.33333 7.16667Z" fill="#26201B"/>
</svg>
