<svg width="16" height="16" viewBox="0 0 24 25" fill="none" xmlns="http://www.w3.org/2000/svg" id="reservas">
<path fill-rule="evenodd" clip-rule="evenodd" d="M12 2.25C6.33908 2.25 1.75 6.83908 1.75 12.5C1.75 18.1609 6.33908 22.75 12 22.75C17.6609 22.75 22.25 18.1609 22.25 12.5C22.25 6.83908 17.6609 2.25 12 2.25ZM0.25 12.5C0.25 6.01065 5.51065 0.75 12 0.75C18.4893 0.75 23.75 6.01065 23.75 12.5C23.75 18.9893 18.4893 24.25 12 24.25C5.51065 24.25 0.25 18.9893 0.25 12.5ZM12 6.75C12.4142 6.75 12.75 7.08579 12.75 7.5V12.5C12.75 12.9142 12.4142 13.25 12 13.25C11.5858 13.25 11.25 12.9142 11.25 12.5V7.5C11.25 7.08579 11.5858 6.75 12 6.75ZM12 15.75C12.4142 15.75 12.75 16.0858 12.75 16.5V17C12.75 17.4142 12.4142 17.75 12 17.75C11.5858 17.75 11.25 17.4142 11.25 17V16.5C11.25 16.0858 11.5858 15.75 12 15.75Z" fill="#26201B"/>
</svg>
