<svg width="21" height="20" viewBox="0 0 21 20" fill="none" xmlns="http://www.w3.org/2000/svg">
<g clip-path="url(#clip0_1467_20849)">
<path d="M0.547607 20L1.95344 14.8642C1.08594 13.3608 0.630107 11.6567 0.630941 9.90917C0.633441 4.44583 5.07927 0 10.5418 0C13.1926 0.000833333 15.6809 1.03333 17.5526 2.90667C19.4234 4.78 20.4534 7.27 20.4526 9.91833C20.4501 15.3825 16.0043 19.8283 10.5418 19.8283C8.88344 19.8275 7.24927 19.4117 5.80177 18.6217L0.547607 20ZM6.04511 16.8275C7.44177 17.6567 8.77511 18.1533 10.5384 18.1542C15.0784 18.1542 18.7768 14.4592 18.7793 9.91667C18.7809 5.365 15.1001 1.675 10.5451 1.67333C6.00177 1.67333 2.30594 5.36833 2.30427 9.91C2.30344 11.7642 2.84677 13.1525 3.75927 14.605L2.92677 17.645L6.04511 16.8275ZM15.5343 12.2742C15.4726 12.1708 15.3076 12.1092 15.0593 11.985C14.8118 11.8608 13.5943 11.2617 13.3668 11.1792C13.1401 11.0967 12.9751 11.055 12.8093 11.3033C12.6443 11.5508 12.1693 12.1092 12.0251 12.2742C11.8809 12.4392 11.7359 12.46 11.4884 12.3358C11.2409 12.2117 10.4426 11.9508 9.49677 11.1067C8.76094 10.45 8.26344 9.63917 8.11927 9.39083C7.97511 9.14333 8.10427 9.00917 8.22761 8.88583C8.33927 8.775 8.47511 8.59667 8.59927 8.45167C8.72511 8.30833 8.76594 8.205 8.84927 8.03917C8.93177 7.87417 8.89094 7.72917 8.82844 7.605C8.76594 7.48167 8.27094 6.2625 8.06511 5.76667C7.86344 5.28417 7.65927 5.34917 7.50761 5.34167L7.03261 5.33333C6.86761 5.33333 6.59927 5.395 6.37261 5.64333C6.14594 5.89167 5.50594 6.49 5.50594 7.70917C5.50594 8.92833 6.39344 10.1058 6.51677 10.2708C6.64094 10.4358 8.26261 12.9375 10.7468 14.01C11.3376 14.265 11.7993 14.4175 12.1584 14.5317C12.7518 14.72 13.2918 14.6933 13.7184 14.63C14.1943 14.5592 15.1834 14.0308 15.3901 13.4525C15.5968 12.8733 15.5968 12.3775 15.5343 12.2742Z" fill="#26201B"/>
</g>
<defs>
<clipPath id="clip0_1467_20849">
<rect width="20" height="20" fill="white" transform="translate(0.5)"/>
</clipPath>
</defs>
</svg>
