<svg width="24" height="25" viewBox="0 0 24 25" fill="none" xmlns="http://www.w3.org/2000/svg" id="telefono">
<path fill-rule="evenodd" clip-rule="evenodd" d="M1.75128 3.57069C1.87221 14.2527 10.5392 22.9197 21.2209 23.0413L22.215 18.7315L17.5371 16.7263L14.7256 20.1578L13.48 19.5462C9.88652 17.7816 6.96686 14.8621 5.20315 11.2692L4.58551 10.011L8.02398 7.25018L6.02384 2.5852L1.75128 3.57069ZM7.53821 1.6763L9.71904 6.76272C9.97398 7.36184 9.80202 8.05987 9.29807 8.47147L6.77408 10.4981C8.36704 13.7431 11.0054 16.3814 14.2513 17.9753L16.3178 15.4532C16.7251 14.9479 17.4284 14.773 18.0275 15.0325L23.1139 17.2128C23.7257 17.5347 24.1242 18.2472 23.9648 18.9317L22.8748 23.6571C22.7217 24.3252 22.1346 24.7925 21.4469 24.7925C9.61966 24.7916 0 15.172 0 3.34427C0 2.65702 0.467341 2.06915 1.13542 1.91679L5.86087 0.826842C6.54906 0.667358 7.25225 1.02458 7.53821 1.6763Z" fill="#52483B"/>
<path fill-rule="evenodd" clip-rule="evenodd" d="M1.75128 3.57069C1.87221 14.2527 10.5392 22.9197 21.2209 23.0413L22.215 18.7315L17.5371 16.7263L14.7256 20.1578L13.48 19.5462C9.88652 17.7816 6.96686 14.8621 5.20315 11.2692L4.58551 10.011L8.02398 7.25018L6.02384 2.5852L1.75128 3.57069ZM7.53821 1.6763C7.25225 1.02458 6.54906 0.667358 5.86087 0.826842L1.13542 1.91679C0.467341 2.06915 0 2.65702 0 3.34427C0 15.1719 9.61966 24.7916 21.4469 24.7925C22.1346 24.7925 22.7217 24.3252 22.8748 23.6571L23.9648 18.9317C24.1242 18.2472 23.7257 17.5347 23.1139 17.2128L18.0275 15.0325C17.4284 14.773 16.7251 14.9479 16.3178 15.4532L14.2513 17.9753C11.0054 16.3814 8.36704 13.7431 6.77408 10.4981L9.29807 8.47147C9.80202 8.05987 9.97398 7.36184 9.71904 6.76272L7.53821 1.6763Z" fill="#26201B"/>
</svg>
