<svg width="16" height="16" viewBox="0 0 16 16" fill="#26201B" xmlns="http://www.w3.org/2000/svg" id="users">
<path fill-rule="evenodd" clip-rule="evenodd" d="M4.8 2.39998C3.91634 2.39998 3.2 3.11632 3.2 3.99998C3.2 4.88364 3.91634 5.59998 4.8 5.59998C5.68366 5.59998 6.4 4.88364 6.4 3.99998C6.4 3.11632 5.68366 2.39998 4.8 2.39998ZM2.13333 3.99998C2.13333 2.52722 3.32724 1.33331 4.8 1.33331C6.27276 1.33331 7.46667 2.52722 7.46667 3.99998C7.46667 5.47274 6.27276 6.66665 4.8 6.66665C3.32724 6.66665 2.13333 5.47274 2.13333 3.99998ZM11.5556 4.53331C10.8683 4.53331 10.3111 5.09047 10.3111 5.77776C10.3111 6.46505 10.8683 7.0222 11.5556 7.0222C12.2428 7.0222 12.8 6.46505 12.8 5.77776C12.8 5.09047 12.2428 4.53331 11.5556 4.53331ZM9.24444 5.77776C9.24444 4.50137 10.2792 3.46665 11.5556 3.46665C12.8319 3.46665 13.8667 4.50137 13.8667 5.77776C13.8667 7.05415 12.8319 8.08887 11.5556 8.08887C10.2792 8.08887 9.24444 7.05415 9.24444 5.77776ZM0 12.5333C0 9.88235 2.14903 7.73331 4.8 7.73331C6.53616 7.73331 8.05703 8.65506 8.89994 10.0359C9.64067 9.48322 10.5601 9.15554 11.5556 9.15554C14.0102 9.15554 16 11.1454 16 13.6V14.4889H0V12.5333ZM9.59843 12.4094C9.58628 11.9296 9.50371 11.4673 9.36068 11.0324C9.95136 10.5269 10.7175 10.2222 11.5556 10.2222C13.3614 10.2222 14.8363 11.6393 14.9287 13.4222H9.6V12.5333C9.6 12.4919 9.59948 12.4506 9.59843 12.4094ZM8.53333 12.5333C8.53333 12.492 8.53266 12.4508 8.53133 12.4098C8.46615 10.4051 6.82052 8.79998 4.8 8.79998C2.73814 8.79998 1.06667 10.4715 1.06667 12.5333V13.4222H8.53333V12.5333Z" fill="#26201B"/>
</svg>
