<svg width="16" height="16" viewBox="0 0 16 16" fill="#26201B" xmlns="http://www.w3.org/2000/svg" id="watch">
<path d="M11.6666 3.33335V3.83335C11.8226 3.83335 11.9697 3.76052 12.0643 3.63643C12.1588 3.51234 12.1901 3.35121 12.1487 3.20078L11.6666 3.33335ZM4.33325 3.33335L3.85115 3.20078C3.80978 3.35121 3.841 3.51234 3.93558 3.63643C4.03015 3.76052 4.17723 3.83335 4.33325 3.83335V3.33335ZM11.2701 1.89143L11.7522 1.75885V1.75885L11.2701 1.89143ZM4.72978 1.89143L5.21188 2.024H5.21188L4.72978 1.89143ZM4.33325 12.6667V12.1667C4.17723 12.1667 4.03015 12.2395 3.93558 12.3636C3.841 12.4877 3.80978 12.6488 3.85115 12.7993L4.33325 12.6667ZM11.6666 12.6667L12.1487 12.7993C12.1901 12.6488 12.1588 12.4877 12.0643 12.3636C11.9697 12.2395 11.8226 12.1667 11.6666 12.1667V12.6667ZM4.72978 14.1086L5.21188 13.976L4.72978 14.1086ZM11.2701 14.1086L11.7522 14.2412L11.2701 14.1086ZM8.49992 6.00002C8.49992 5.72388 8.27606 5.50002 7.99992 5.50002C7.72378 5.50002 7.49992 5.72388 7.49992 6.00002H8.49992ZM7.99992 8.33335H7.49992C7.49992 8.49073 7.57402 8.63893 7.69992 8.73335L7.99992 8.33335ZM9.03325 9.73335C9.25417 9.89904 9.56757 9.85427 9.73325 9.63335C9.89894 9.41244 9.85417 9.09904 9.63325 8.93335L9.03325 9.73335ZM5.33325 3.83335H10.6666V2.83335H5.33325V3.83335ZM12.1666 5.33335V10.6667H13.1666V5.33335H12.1666ZM10.6666 12.1667H5.33325V13.1667H10.6666V12.1667ZM3.83325 10.6667V5.33335H2.83325V10.6667H3.83325ZM5.33325 12.1667C4.50482 12.1667 3.83325 11.4951 3.83325 10.6667H2.83325C2.83325 12.0474 3.95254 13.1667 5.33325 13.1667V12.1667ZM12.1666 10.6667C12.1666 11.4951 11.495 12.1667 10.6666 12.1667V13.1667C12.0473 13.1667 13.1666 12.0474 13.1666 10.6667H12.1666ZM10.6666 3.83335C11.495 3.83335 12.1666 4.50493 12.1666 5.33335H13.1666C13.1666 3.95264 12.0473 2.83335 10.6666 2.83335V3.83335ZM5.33325 2.83335C3.95254 2.83335 2.83325 3.95264 2.83325 5.33335H3.83325C3.83325 4.50493 4.50482 3.83335 5.33325 3.83335V2.83335ZM6.33679 1.16669H9.66305V0.166687H6.33679V1.16669ZM10.788 2.024L11.1845 3.46593L12.1487 3.20078L11.7522 1.75885L10.788 2.024ZM11.6666 2.83335H4.33325V3.83335H11.6666V2.83335ZM4.81535 3.46593L5.21188 2.024L4.24768 1.75885L3.85115 3.20078L4.81535 3.46593ZM9.66305 1.16669C10.1882 1.16669 10.6487 1.51761 10.788 2.024L11.7522 1.75885C11.4935 0.818401 10.6384 0.166687 9.66305 0.166687V1.16669ZM6.33679 0.166687C5.36143 0.166687 4.5063 0.818402 4.24768 1.75885L5.21188 2.024C5.35114 1.51761 5.8116 1.16669 6.33679 1.16669V0.166687ZM4.33325 13.1667H11.6666V12.1667H4.33325V13.1667ZM11.1845 12.5341L10.788 13.976L11.7522 14.2412L12.1487 12.7993L11.1845 12.5341ZM9.66305 14.8334H6.33679V15.8334H9.66305V14.8334ZM5.21188 13.976L4.81535 12.5341L3.85115 12.7993L4.24768 14.2412L5.21188 13.976ZM6.33679 14.8334C5.8116 14.8334 5.35114 14.4824 5.21188 13.976L4.24768 14.2412C4.5063 15.1816 5.36143 15.8334 6.33679 15.8334V14.8334ZM10.788 13.976C10.6487 14.4824 10.1882 14.8334 9.66305 14.8334V15.8334C10.6384 15.8334 11.4935 15.1816 11.7522 14.2412L10.788 13.976ZM7.49992 6.00002V8.33335H8.49992V6.00002H7.49992ZM7.69992 8.73335L9.03325 9.73335L9.63325 8.93335L8.29992 7.93335L7.69992 8.73335Z" fill="black"/>
</svg>
